<?xml version="1.0" encoding="UTF-8" standalone="no"?>
<!DOCTYPE svg PUBLIC "-//W3C//DTD SVG 1.1//EN" "http://www.w3.org/Graphics/SVG/1.1/DTD/svg11.dtd">
<svg width="100%" height="100%" viewBox="0 0 1500 450" version="1.1" xmlns="http://www.w3.org/2000/svg" xmlns:xlink="http://www.w3.org/1999/xlink" xml:space="preserve" xmlns:serif="http://www.serif.com/" style="fill-rule:evenodd;clip-rule:evenodd;stroke-linejoin:round;stroke-miterlimit:2;">
    <g id="LOGO" transform="matrix(0.460612,0,0,0.460612,-8.76481,-23.3966)">
        <g id="outer-ring" serif:id="outer ring" transform="matrix(0.975,0,0,0.975,16.936,12.7749)">
            <g id="y" transform="matrix(1.57233,0,0,1.82815,-211.572,-384.132)">
                <path d="M587.204,248.633C552.217,237.63 515.253,232 478,232C302.491,232 160,354.551 160,505.5C160,656.449 302.491,779 478,779C611.514,779 730.811,707.27 776.661,599.422L717.939,580.956C681.104,667.598 585.263,725.225 478,725.225C336.999,725.225 222.525,626.769 222.525,505.5C222.525,384.231 336.999,285.775 478,285.775C507.928,285.775 537.624,290.298 565.733,299.138L587.204,248.633Z" style="fill:rgb(254,196,81);"/>
            </g>
            <g id="o" transform="matrix(1.57233,0,0,1.82815,-211.572,-384.132)">
                <path d="M478,232C302.373,232 160,354.45 160,505.5C160,656.449 302.491,779 478,779C611.514,779 730.811,707.27 776.661,599.422L717.939,580.956C681.104,667.598 585.263,725.225 478,725.225C336.999,725.225 222.525,626.769 222.525,505.5C222.525,384.149 336.905,285.775 478,285.775L478,232Z" style="fill:rgb(246,164,87);"/>
            </g>
            <g id="bl" transform="matrix(1.57233,0,0,1.82815,-211.572,-384.132)">
                <path d="M368.796,248.633C243.401,288.067 160,390.669 160,505.5C160,656.449 302.491,779 478,779C611.514,779 730.811,707.27 776.661,599.422L717.939,580.956C681.104,667.598 585.263,725.225 478,725.225C336.999,725.225 222.525,626.769 222.525,505.5C222.525,413.247 289.528,330.818 390.267,299.138L368.796,248.633Z" style="fill:rgb(65,133,244);"/>
            </g>
            <g id="bk" transform="matrix(1.57233,0,0,1.82815,-211.572,-384.132)">
                <path d="M179.339,411.578C166.546,441.669 160,473.46 160,505.5C160,656.449 302.491,779 478,779C611.514,779 730.811,707.27 776.661,599.422L717.939,580.956C681.104,667.598 585.263,725.225 478,725.225C336.999,725.225 222.525,626.769 222.525,505.5C222.525,479.76 227.784,454.219 238.061,430.044L179.339,411.578Z"/>
            </g>
        </g>
        <g id="inner-ring" serif:id="inner ring">
            <g id="b" transform="matrix(1.17767,0,0,1.36929,-22.9277,-152.175)">
                <path d="M368.796,248.633C243.401,288.067 160,390.669 160,505.5C160,656.449 302.491,779 478,779C611.514,779 730.811,707.27 776.661,599.422L770.688,597.544C725.755,703.234 608.844,773.53 478,773.53C306.001,773.53 166.36,653.43 166.36,505.5C166.36,392.966 248.093,292.415 370.98,253.77L368.796,248.633Z" style="fill:rgb(65,133,244);"/>
            </g>
            <g id="o1" serif:id="o" transform="matrix(1.10377,0,0,1.28336,14.4922,-109.465)">
                <path d="M478,232C302.373,232 160,354.45 160,505.5C160,656.449 302.491,779 478,779C634.708,779 768.056,680.812 792.202,547.643L785.918,546.8C762.255,677.306 631.574,773.53 478,773.53C306.001,773.53 166.36,653.43 166.36,505.5C166.36,357.471 305.886,237.47 478,237.47L478,232Z" style="fill:rgb(246,164,87);"/>
            </g>
            <g id="y1" serif:id="y" transform="matrix(1.02201,0,0,1.1883,51.478,-60.6856)">
                <path d="M587.204,248.633C552.217,237.63 515.253,232 478,232C302.491,232 160,354.551 160,505.5C160,656.449 302.491,779 478,779C653.627,779 796,656.55 796,505.5L789.64,505.5C789.64,653.529 650.114,773.53 478,773.53C306.001,773.53 166.36,653.43 166.36,505.5C166.36,357.57 306.001,237.47 478,237.47C514.508,237.47 550.732,242.987 585.02,253.77L587.204,248.633Z" style="fill:rgb(254,196,81);"/>
            </g>
        </g>
    </g>
    <g transform="matrix(1,0,0,1,-37,8.64909)">
        <g transform="matrix(0.559964,0,0,0.559964,327.406,-197.744)">
            <text x="362.561px" y="744.801px" style="font-family:'Futura-Bold', 'Futura', sans-serif;font-weight:700;font-size:165.313px;">2020 CLIMAS Cam<tspan x="1984.94px " y="744.801px ">p</tspan></text>
        </g>
        <g transform="matrix(0.224428,0,0,0.224428,648.786,115.057)">
            <text x="362.561px" y="744.801px" style="font-family:'TaipeiSansTCBeta-Regular', 'Taipei Sans TC Beta';font-size:165.313px;">台大 中文x資管x大氣 聯合迎新宿營</text>
        </g>
    </g>
</svg>
