<?xml version="1.0" encoding="UTF-8" standalone="no"?>
<!DOCTYPE svg PUBLIC "-//W3C//DTD SVG 1.1//EN" "http://www.w3.org/Graphics/SVG/1.1/DTD/svg11.dtd">
<svg width="185px" height="188px" viewBox="0 0 185 188" version="1.1" enable-background="new 0 0 185 188" xmlns="http://www.w3.org/2000/svg" xmlns:xlink="http://www.w3.org/1999/xlink" xml:space="preserve" xmlns:serif="http://www.serif.com/" style="fill-rule:evenodd;clip-rule:evenodd;stroke-linejoin:round;stroke-miterlimit:2;">
    <g transform="matrix(0.993632,0,0,0.993632,0.374,0.598551)">
        <g transform="matrix(0.127041,0,0,0.127041,-2.66785,-0.859668)">
            <g id="LOGO" transform="matrix(0.460612,0,0,0.460612,-4.76481,1.15184)">
                <g id="outer-ring" serif:id="outer ring" transform="matrix(0.975,0,0,0.975,16.936,12.7749)">
                    <g id="y" transform="matrix(1.57233,0,0,1.82815,-211.572,-384.132)">
                        <path d="M587.204,248.633C552.217,237.63 515.253,232 478,232C302.491,232 160,354.551 160,505.5C160,656.449 302.491,779 478,779C611.514,779 730.811,707.27 776.661,599.422L717.939,580.956C681.104,667.598 585.263,725.225 478,725.225C336.999,725.225 222.525,626.769 222.525,505.5C222.525,384.231 336.999,285.775 478,285.775C507.928,285.775 537.624,290.298 565.733,299.138L587.204,248.633Z" style="fill:rgb(254,196,81);"/>
                    </g>
                    <g id="o" transform="matrix(1.57233,0,0,1.82815,-211.572,-384.132)">
                        <path d="M478,232C302.373,232 160,354.45 160,505.5C160,656.449 302.491,779 478,779C611.514,779 730.811,707.27 776.661,599.422L717.939,580.956C681.104,667.598 585.263,725.225 478,725.225C336.999,725.225 222.525,626.769 222.525,505.5C222.525,384.149 336.905,285.775 478,285.775L478,232Z" style="fill:rgb(246,164,87);"/>
                    </g>
                    <g id="bl" transform="matrix(1.57233,0,0,1.82815,-211.572,-384.132)">
                        <path d="M368.796,248.633C243.401,288.067 160,390.669 160,505.5C160,656.449 302.491,779 478,779C611.514,779 730.811,707.27 776.661,599.422L717.939,580.956C681.104,667.598 585.263,725.225 478,725.225C336.999,725.225 222.525,626.769 222.525,505.5C222.525,413.247 289.528,330.818 390.267,299.138L368.796,248.633Z" style="fill:rgb(65,133,244);"/>
                    </g>
                    <g id="bk" transform="matrix(1.57233,0,0,1.82815,-211.572,-384.132)">
                        <path d="M179.339,411.578C166.546,441.669 160,473.46 160,505.5C160,656.449 302.491,779 478,779C611.514,779 730.811,707.27 776.661,599.422L717.939,580.956C681.104,667.598 585.263,725.225 478,725.225C336.999,725.225 222.525,626.769 222.525,505.5C222.525,479.76 227.784,454.219 238.061,430.044L179.339,411.578Z"/>
                    </g>
                </g>
                <g id="inner-ring" serif:id="inner ring">
                    <g id="b" transform="matrix(1.17767,0,0,1.36929,-22.9277,-152.175)">
                        <path d="M368.796,248.633C243.401,288.067 160,390.669 160,505.5C160,656.449 302.491,779 478,779C611.514,779 730.811,707.27 776.661,599.422L770.688,597.544C725.755,703.234 608.844,773.53 478,773.53C306.001,773.53 166.36,653.43 166.36,505.5C166.36,392.966 248.093,292.415 370.98,253.77L368.796,248.633Z" style="fill:rgb(65,133,244);"/>
                    </g>
                    <g id="o1" serif:id="o" transform="matrix(1.10377,0,0,1.28336,14.4922,-109.465)">
                        <path d="M478,232C302.373,232 160,354.45 160,505.5C160,656.449 302.491,779 478,779C634.708,779 768.056,680.812 792.202,547.643L785.918,546.8C762.255,677.306 631.574,773.53 478,773.53C306.001,773.53 166.36,653.43 166.36,505.5C166.36,357.471 305.886,237.47 478,237.47L478,232Z" style="fill:rgb(246,164,87);"/>
                    </g>
                    <g id="y1" serif:id="y" transform="matrix(1.02201,0,0,1.1883,51.478,-60.6856)">
                        <path d="M587.204,248.633C552.217,237.63 515.253,232 478,232C302.491,232 160,354.551 160,505.5C160,656.449 302.491,779 478,779C653.627,779 796,656.55 796,505.5L789.64,505.5C789.64,653.529 650.114,773.53 478,773.53C306.001,773.53 166.36,653.43 166.36,505.5C166.36,357.57 306.001,237.47 478,237.47C514.508,237.47 550.732,242.987 585.02,253.77L587.204,248.633Z" style="fill:rgb(254,196,81);"/>
                    </g>
                </g>
            </g>
            <g transform="matrix(1,0,0,1,-33,59.1862)">
                <g transform="matrix(0.841579,0,0,0.841579,224,-408.469)">
                    <g transform="matrix(165.313,0,0,165.313,362.561,744.801)">
                        <path d="M0.635,0L0.028,0L0.215,-0.194C0.264,-0.245 0.303,-0.289 0.331,-0.325C0.359,-0.36 0.38,-0.39 0.394,-0.415C0.407,-0.44 0.416,-0.46 0.419,-0.475C0.422,-0.49 0.424,-0.503 0.424,-0.514C0.424,-0.525 0.422,-0.536 0.419,-0.547C0.415,-0.558 0.409,-0.567 0.402,-0.576C0.395,-0.584 0.386,-0.591 0.376,-0.596C0.365,-0.6 0.353,-0.603 0.339,-0.603C0.312,-0.603 0.292,-0.594 0.277,-0.577C0.262,-0.56 0.254,-0.538 0.254,-0.512C0.254,-0.505 0.255,-0.494 0.257,-0.48L0.043,-0.48C0.043,-0.524 0.05,-0.564 0.065,-0.6C0.079,-0.636 0.099,-0.667 0.125,-0.693C0.151,-0.719 0.182,-0.739 0.218,-0.753C0.253,-0.767 0.292,-0.774 0.335,-0.774C0.377,-0.774 0.416,-0.767 0.452,-0.754C0.487,-0.741 0.518,-0.722 0.544,-0.698C0.57,-0.674 0.59,-0.646 0.605,-0.613C0.62,-0.58 0.627,-0.544 0.627,-0.505C0.627,-0.464 0.618,-0.426 0.601,-0.391C0.583,-0.356 0.555,-0.32 0.516,-0.283L0.391,-0.166L0.635,-0.166L0.635,0Z" style="fill-rule:nonzero;"/>
                    </g>
                    <g transform="matrix(165.313,0,0,165.313,474.974,744.801)">
                        <path d="M0.214,-0.378C0.214,-0.345 0.217,-0.314 0.223,-0.287C0.229,-0.26 0.238,-0.236 0.249,-0.216C0.26,-0.196 0.273,-0.181 0.288,-0.17C0.303,-0.159 0.321,-0.153 0.34,-0.153C0.359,-0.153 0.376,-0.159 0.392,-0.17C0.407,-0.181 0.42,-0.196 0.431,-0.216C0.442,-0.236 0.45,-0.26 0.456,-0.287C0.462,-0.314 0.465,-0.345 0.465,-0.378C0.465,-0.411 0.462,-0.441 0.456,-0.469C0.45,-0.496 0.442,-0.52 0.431,-0.54C0.42,-0.559 0.407,-0.575 0.392,-0.586C0.376,-0.596 0.359,-0.602 0.34,-0.602C0.321,-0.602 0.303,-0.596 0.288,-0.586C0.273,-0.575 0.26,-0.559 0.249,-0.54C0.238,-0.52 0.229,-0.496 0.223,-0.469C0.217,-0.441 0.214,-0.411 0.214,-0.378ZM0.02,-0.378C0.02,-0.438 0.028,-0.493 0.044,-0.542C0.059,-0.591 0.081,-0.632 0.11,-0.667C0.138,-0.702 0.171,-0.729 0.211,-0.748C0.25,-0.767 0.293,-0.776 0.34,-0.776C0.387,-0.776 0.43,-0.767 0.469,-0.748C0.508,-0.729 0.542,-0.702 0.57,-0.667C0.598,-0.632 0.62,-0.591 0.636,-0.542C0.651,-0.493 0.659,-0.438 0.659,-0.378C0.659,-0.318 0.651,-0.264 0.636,-0.215C0.62,-0.166 0.598,-0.124 0.57,-0.089C0.542,-0.054 0.508,-0.027 0.469,-0.008C0.43,0.012 0.387,0.021 0.34,0.021C0.293,0.021 0.25,0.012 0.211,-0.008C0.171,-0.027 0.138,-0.054 0.11,-0.089C0.081,-0.124 0.059,-0.166 0.044,-0.215C0.028,-0.264 0.02,-0.318 0.02,-0.378Z" style="fill-rule:nonzero;"/>
                    </g>
                    <g transform="matrix(165.313,0,0,165.313,587.387,744.801)">
                        <path d="M0.635,0L0.028,0L0.215,-0.194C0.264,-0.245 0.303,-0.289 0.331,-0.325C0.359,-0.36 0.38,-0.39 0.394,-0.415C0.407,-0.44 0.416,-0.46 0.419,-0.475C0.422,-0.49 0.424,-0.503 0.424,-0.514C0.424,-0.525 0.422,-0.536 0.419,-0.547C0.415,-0.558 0.409,-0.567 0.402,-0.576C0.395,-0.584 0.386,-0.591 0.376,-0.596C0.365,-0.6 0.353,-0.603 0.339,-0.603C0.312,-0.603 0.292,-0.594 0.277,-0.577C0.262,-0.56 0.254,-0.538 0.254,-0.512C0.254,-0.505 0.255,-0.494 0.257,-0.48L0.043,-0.48C0.043,-0.524 0.05,-0.564 0.065,-0.6C0.079,-0.636 0.099,-0.667 0.125,-0.693C0.151,-0.719 0.182,-0.739 0.218,-0.753C0.253,-0.767 0.292,-0.774 0.335,-0.774C0.377,-0.774 0.416,-0.767 0.452,-0.754C0.487,-0.741 0.518,-0.722 0.544,-0.698C0.57,-0.674 0.59,-0.646 0.605,-0.613C0.62,-0.58 0.627,-0.544 0.627,-0.505C0.627,-0.464 0.618,-0.426 0.601,-0.391C0.583,-0.356 0.555,-0.32 0.516,-0.283L0.391,-0.166L0.635,-0.166L0.635,0Z" style="fill-rule:nonzero;"/>
                    </g>
                    <g transform="matrix(165.313,0,0,165.313,699.8,744.801)">
                        <path d="M0.214,-0.378C0.214,-0.345 0.217,-0.314 0.223,-0.287C0.229,-0.26 0.238,-0.236 0.249,-0.216C0.26,-0.196 0.273,-0.181 0.288,-0.17C0.303,-0.159 0.321,-0.153 0.34,-0.153C0.359,-0.153 0.376,-0.159 0.392,-0.17C0.407,-0.181 0.42,-0.196 0.431,-0.216C0.442,-0.236 0.45,-0.26 0.456,-0.287C0.462,-0.314 0.465,-0.345 0.465,-0.378C0.465,-0.411 0.462,-0.441 0.456,-0.469C0.45,-0.496 0.442,-0.52 0.431,-0.54C0.42,-0.559 0.407,-0.575 0.392,-0.586C0.376,-0.596 0.359,-0.602 0.34,-0.602C0.321,-0.602 0.303,-0.596 0.288,-0.586C0.273,-0.575 0.26,-0.559 0.249,-0.54C0.238,-0.52 0.229,-0.496 0.223,-0.469C0.217,-0.441 0.214,-0.411 0.214,-0.378ZM0.02,-0.378C0.02,-0.438 0.028,-0.493 0.044,-0.542C0.059,-0.591 0.081,-0.632 0.11,-0.667C0.138,-0.702 0.171,-0.729 0.211,-0.748C0.25,-0.767 0.293,-0.776 0.34,-0.776C0.387,-0.776 0.43,-0.767 0.469,-0.748C0.508,-0.729 0.542,-0.702 0.57,-0.667C0.598,-0.632 0.62,-0.591 0.636,-0.542C0.651,-0.493 0.659,-0.438 0.659,-0.378C0.659,-0.318 0.651,-0.264 0.636,-0.215C0.62,-0.166 0.598,-0.124 0.57,-0.089C0.542,-0.054 0.508,-0.027 0.469,-0.008C0.43,0.012 0.387,0.021 0.34,0.021C0.293,0.021 0.25,0.012 0.211,-0.008C0.171,-0.027 0.138,-0.054 0.11,-0.089C0.081,-0.124 0.059,-0.166 0.044,-0.215C0.028,-0.264 0.02,-0.318 0.02,-0.378Z" style="fill-rule:nonzero;"/>
                    </g>
                    <g transform="matrix(165.313,0,0,165.313,868.419,744.801)">
                        <path d="M0.622,-0.502C0.577,-0.557 0.521,-0.585 0.454,-0.585C0.425,-0.585 0.398,-0.58 0.373,-0.569C0.347,-0.558 0.326,-0.544 0.308,-0.526C0.29,-0.507 0.276,-0.485 0.266,-0.46C0.255,-0.435 0.25,-0.407 0.25,-0.378C0.25,-0.348 0.255,-0.32 0.266,-0.295C0.276,-0.27 0.29,-0.248 0.309,-0.229C0.327,-0.21 0.348,-0.196 0.373,-0.185C0.398,-0.174 0.424,-0.169 0.453,-0.169C0.516,-0.169 0.572,-0.196 0.622,-0.249L0.622,-0.017L0.602,-0.01C0.572,0.001 0.544,0.009 0.518,0.014C0.492,0.019 0.466,0.021 0.441,0.021C0.389,0.021 0.339,0.011 0.292,-0.009C0.244,-0.028 0.202,-0.056 0.166,-0.092C0.129,-0.127 0.1,-0.169 0.078,-0.219C0.056,-0.268 0.045,-0.321 0.045,-0.379C0.045,-0.437 0.056,-0.49 0.078,-0.539C0.099,-0.587 0.128,-0.628 0.165,-0.664C0.201,-0.699 0.243,-0.726 0.291,-0.746C0.339,-0.765 0.389,-0.775 0.442,-0.775C0.472,-0.775 0.501,-0.772 0.531,-0.766C0.56,-0.759 0.59,-0.749 0.622,-0.736L0.622,-0.502Z" style="fill-rule:nonzero;"/>
                    </g>
                    <g transform="matrix(165.313,0,0,165.313,978.683,744.801)">
                        <path d="M0.275,-0.754L0.275,-0.166L0.51,-0.166L0.51,0L0.079,0L0.079,-0.754L0.275,-0.754Z" style="fill-rule:nonzero;"/>
                    </g>
                    <g transform="matrix(165.313,0,0,165.313,1066.63,744.801)">
                        <rect x="0.079" y="-0.754" width="0.196" height="0.754" style="fill-rule:nonzero;"/>
                    </g>
                    <g transform="matrix(165.313,0,0,165.313,1125.15,744.801)">
                        <path d="M0.045,0L0.173,-0.754L0.367,-0.754L0.518,-0.352L0.668,-0.754L0.862,-0.754L0.99,0L0.795,0L0.73,-0.434L0.552,0L0.474,0L0.305,-0.434L0.24,0L0.045,0Z" style="fill-rule:nonzero;"/>
                    </g>
                    <g transform="matrix(165.313,0,0,165.313,1296.25,744.801)">
                        <path d="M0.489,-0.28L0.401,-0.531L0.313,-0.28L0.489,-0.28ZM0.541,-0.131L0.261,-0.131L0.216,0L0.007,0L0.294,-0.754L0.508,-0.754L0.795,0L0.586,0L0.541,-0.131Z" style="fill-rule:nonzero;"/>
                    </g>
                    <g transform="matrix(165.313,0,0,165.313,1428.83,744.801)">
                        <path d="M0.493,-0.561C0.472,-0.578 0.45,-0.591 0.429,-0.6C0.408,-0.608 0.387,-0.612 0.367,-0.612C0.342,-0.612 0.321,-0.606 0.305,-0.594C0.289,-0.582 0.281,-0.566 0.281,-0.547C0.281,-0.534 0.285,-0.523 0.293,-0.514C0.301,-0.505 0.312,-0.498 0.325,-0.492C0.338,-0.485 0.352,-0.48 0.369,-0.475C0.385,-0.47 0.401,-0.465 0.417,-0.46C0.481,-0.439 0.528,-0.41 0.558,-0.375C0.587,-0.339 0.602,-0.292 0.602,-0.235C0.602,-0.196 0.596,-0.161 0.583,-0.13C0.57,-0.099 0.551,-0.072 0.526,-0.05C0.501,-0.027 0.47,-0.01 0.434,0.003C0.397,0.015 0.356,0.021 0.31,0.021C0.215,0.021 0.126,-0.007 0.045,-0.064L0.129,-0.222C0.158,-0.196 0.187,-0.177 0.216,-0.164C0.245,-0.151 0.273,-0.145 0.301,-0.145C0.333,-0.145 0.357,-0.152 0.373,-0.167C0.388,-0.182 0.396,-0.198 0.396,-0.217C0.396,-0.228 0.394,-0.238 0.39,-0.247C0.386,-0.255 0.379,-0.263 0.37,-0.27C0.361,-0.277 0.349,-0.283 0.334,-0.289C0.319,-0.295 0.3,-0.302 0.279,-0.309C0.254,-0.317 0.229,-0.326 0.205,-0.336C0.18,-0.345 0.159,-0.358 0.14,-0.374C0.121,-0.39 0.105,-0.41 0.094,-0.435C0.082,-0.459 0.076,-0.49 0.076,-0.527C0.076,-0.564 0.082,-0.598 0.095,-0.629C0.107,-0.659 0.124,-0.685 0.147,-0.707C0.169,-0.728 0.196,-0.745 0.229,-0.757C0.261,-0.769 0.297,-0.775 0.337,-0.775C0.374,-0.775 0.413,-0.77 0.454,-0.76C0.495,-0.749 0.534,-0.734 0.571,-0.714L0.493,-0.561Z" style="fill-rule:nonzero;"/>
                    </g>
                </g>
                <g transform="matrix(0.262379,0,0,0.262379,591.718,75.3119)">
                    <g transform="matrix(165.313,0,0,165.313,362.561,744.801)">
                        <path d="M0.738,-0.277L0.259,-0.277L0.259,-0.039L0.738,-0.039L0.738,-0.277ZM0.184,0.076L0.184,-0.347L0.817,-0.347L0.817,0.074L0.738,0.074L0.738,0.032L0.259,0.032L0.259,0.076L0.184,0.076ZM0.622,-0.68L0.68,-0.722C0.775,-0.646 0.852,-0.571 0.912,-0.496C0.928,-0.477 0.94,-0.459 0.95,-0.443L0.886,-0.394C0.869,-0.422 0.845,-0.454 0.815,-0.49C0.728,-0.486 0.48,-0.475 0.072,-0.457L0.067,-0.531C0.091,-0.532 0.141,-0.534 0.217,-0.536C0.286,-0.641 0.341,-0.742 0.383,-0.84L0.465,-0.812C0.415,-0.716 0.361,-0.625 0.303,-0.54C0.402,-0.543 0.551,-0.549 0.752,-0.559C0.708,-0.604 0.665,-0.644 0.622,-0.68Z" style="fill-rule:nonzero;"/>
                    </g>
                    <g transform="matrix(165.313,0,0,165.313,527.874,744.801)">
                        <path d="M0.939,-0.475L0.562,-0.475C0.625,-0.278 0.724,-0.135 0.859,-0.046C0.89,-0.026 0.922,-0.009 0.955,0.005C0.932,0.026 0.914,0.05 0.899,0.075C0.719,-0.011 0.586,-0.176 0.501,-0.42C0.442,-0.185 0.309,-0.02 0.102,0.075C0.087,0.05 0.069,0.03 0.046,0.014C0.254,-0.078 0.384,-0.241 0.435,-0.475L0.066,-0.475L0.066,-0.551L0.447,-0.551C0.456,-0.61 0.461,-0.704 0.462,-0.832L0.462,-0.835L0.542,-0.835C0.541,-0.715 0.535,-0.62 0.526,-0.551L0.939,-0.551L0.939,-0.475Z" style="fill-rule:nonzero;"/>
                    </g>
                    <g transform="matrix(165.313,0,0,165.313,730.157,744.801)">
                        <path d="M0.536,-0.321L0.823,-0.321L0.823,-0.586L0.536,-0.586L0.536,-0.321ZM0.173,-0.321L0.459,-0.321L0.459,-0.586L0.173,-0.586L0.173,-0.321ZM0.536,-0.659L0.899,-0.659L0.899,-0.191L0.823,-0.191L0.823,-0.248L0.536,-0.248L0.536,0.076L0.459,0.076L0.459,-0.248L0.173,-0.248L0.173,-0.186L0.1,-0.186L0.1,-0.659L0.459,-0.659L0.459,-0.837L0.536,-0.837L0.536,-0.659Z" style="fill-rule:nonzero;"/>
                    </g>
                    <g transform="matrix(165.313,0,0,165.313,895.47,744.801)">
                        <path d="M0.711,-0.595L0.283,-0.595C0.334,-0.457 0.406,-0.341 0.498,-0.246C0.589,-0.339 0.66,-0.455 0.711,-0.595ZM0.951,-0.595L0.797,-0.595C0.739,-0.433 0.658,-0.3 0.555,-0.194C0.669,-0.099 0.804,-0.033 0.961,0.004C0.94,0.024 0.923,0.048 0.908,0.076C0.745,0.034 0.608,-0.037 0.495,-0.138C0.388,-0.047 0.253,0.024 0.089,0.077C0.08,0.056 0.066,0.034 0.045,0.01C0.044,0.008 0.043,0.007 0.042,0.006C0.202,-0.04 0.335,-0.106 0.439,-0.192C0.337,-0.302 0.258,-0.436 0.201,-0.595L0.054,-0.595L0.054,-0.668L0.461,-0.668L0.461,-0.837L0.536,-0.837L0.536,-0.668L0.951,-0.668L0.951,-0.595Z" style="fill-rule:nonzero;"/>
                    </g>
                    <g transform="matrix(165.313,0,0,165.313,1060.78,744.801)">
                        <path d="M0.015,0L0.194,-0.283L0.029,-0.543L0.127,-0.543L0.2,-0.423C0.207,-0.411 0.217,-0.394 0.231,-0.371C0.242,-0.354 0.249,-0.341 0.254,-0.333L0.258,-0.333C0.286,-0.384 0.302,-0.414 0.307,-0.423L0.374,-0.543L0.469,-0.543L0.304,-0.274L0.483,0L0.383,0L0.303,-0.127C0.292,-0.147 0.272,-0.179 0.245,-0.224L0.24,-0.224C0.21,-0.174 0.191,-0.141 0.184,-0.127L0.111,0L0.015,0Z" style="fill-rule:nonzero;"/>
                    </g>
                    <g transform="matrix(165.313,0,0,165.313,1142.96,744.801)">
                        <path d="M0.592,-0.708L0.486,-0.708C0.46,-0.675 0.43,-0.646 0.397,-0.621C0.381,-0.637 0.362,-0.65 0.341,-0.658C0.41,-0.706 0.46,-0.766 0.492,-0.837L0.559,-0.826C0.55,-0.807 0.539,-0.786 0.525,-0.764L0.867,-0.764L0.879,-0.767L0.929,-0.752C0.893,-0.689 0.86,-0.642 0.829,-0.61L0.769,-0.631C0.791,-0.652 0.812,-0.677 0.83,-0.708L0.67,-0.708C0.687,-0.649 0.725,-0.605 0.785,-0.576C0.828,-0.555 0.884,-0.539 0.953,-0.528C0.938,-0.512 0.925,-0.492 0.915,-0.468C0.776,-0.493 0.685,-0.545 0.64,-0.625C0.638,-0.628 0.636,-0.631 0.635,-0.634C0.603,-0.574 0.542,-0.53 0.453,-0.503C0.43,-0.496 0.406,-0.491 0.38,-0.485C0.373,-0.502 0.362,-0.519 0.345,-0.538C0.45,-0.557 0.521,-0.589 0.557,-0.635C0.572,-0.655 0.584,-0.679 0.592,-0.708ZM0.255,-0.202L0.255,-0.132L0.756,-0.132L0.756,-0.202L0.255,-0.202ZM0.255,-0.319L0.255,-0.25L0.756,-0.25L0.756,-0.319L0.255,-0.319ZM0.255,-0.434L0.255,-0.367L0.756,-0.367L0.756,-0.434L0.255,-0.434ZM0.183,-0.083L0.183,-0.484L0.83,-0.484L0.83,-0.083L0.183,-0.083ZM0.337,-0.765L0.337,-0.705L0.078,-0.705L0.078,-0.765L0.337,-0.765ZM0.343,-0.62L0.35,-0.566C0.328,-0.56 0.235,-0.534 0.069,-0.487L0.044,-0.548C0.07,-0.554 0.17,-0.578 0.343,-0.62ZM0.35,-0.073L0.417,-0.041C0.338,0.005 0.236,0.045 0.112,0.079C0.084,0.049 0.066,0.031 0.057,0.023C0.186,-0.004 0.283,-0.036 0.35,-0.073ZM0.583,-0.032L0.644,-0.07C0.773,-0.029 0.873,0.008 0.944,0.041L0.862,0.078C0.799,0.046 0.706,0.009 0.583,-0.032Z" style="fill-rule:nonzero;"/>
                    </g>
                    <g transform="matrix(165.313,0,0,165.313,1308.27,744.801)">
                        <path d="M0.768,-0.112L0.299,-0.112L0.299,-0.015L0.768,-0.015L0.768,-0.112ZM0.704,-0.38L0.299,-0.38L0.299,-0.295L0.704,-0.295L0.704,-0.38ZM0.299,-0.238L0.299,-0.17L0.841,-0.17L0.841,0.075L0.768,0.075L0.768,0.043L0.299,0.043L0.299,0.077L0.229,0.077L0.229,-0.437L0.777,-0.437L0.777,-0.238L0.299,-0.238ZM0.954,-0.761L0.954,-0.699L0.735,-0.699C0.761,-0.667 0.779,-0.64 0.789,-0.617L0.721,-0.594C0.71,-0.622 0.688,-0.658 0.654,-0.699L0.574,-0.699C0.56,-0.68 0.541,-0.659 0.518,-0.636L0.533,-0.636L0.533,-0.558L0.922,-0.558L0.922,-0.371L0.85,-0.371L0.85,-0.499L0.155,-0.499L0.155,-0.371L0.085,-0.371L0.085,-0.558L0.462,-0.558L0.462,-0.621C0.448,-0.63 0.435,-0.637 0.421,-0.644C0.445,-0.66 0.466,-0.679 0.483,-0.699L0.305,-0.699C0.325,-0.663 0.338,-0.636 0.344,-0.617L0.278,-0.597C0.272,-0.618 0.257,-0.652 0.231,-0.699L0.188,-0.699C0.162,-0.66 0.133,-0.625 0.102,-0.593C0.079,-0.61 0.059,-0.624 0.041,-0.633C0.1,-0.684 0.146,-0.75 0.18,-0.829C0.182,-0.833 0.183,-0.837 0.185,-0.841L0.254,-0.823C0.247,-0.804 0.237,-0.784 0.225,-0.761L0.487,-0.761L0.487,-0.703C0.527,-0.747 0.556,-0.793 0.575,-0.841L0.646,-0.824C0.637,-0.8 0.626,-0.779 0.615,-0.761L0.954,-0.761Z" style="fill-rule:nonzero;"/>
                    </g>
                    <g transform="matrix(165.313,0,0,165.313,1473.58,744.801)">
                        <path d="M0.015,0L0.194,-0.283L0.029,-0.543L0.127,-0.543L0.2,-0.423C0.207,-0.411 0.217,-0.394 0.231,-0.371C0.242,-0.354 0.249,-0.341 0.254,-0.333L0.258,-0.333C0.286,-0.384 0.302,-0.414 0.307,-0.423L0.374,-0.543L0.469,-0.543L0.304,-0.274L0.483,0L0.383,0L0.303,-0.127C0.292,-0.147 0.272,-0.179 0.245,-0.224L0.24,-0.224C0.21,-0.174 0.191,-0.141 0.184,-0.127L0.111,0L0.015,0Z" style="fill-rule:nonzero;"/>
                    </g>
                    <g transform="matrix(165.313,0,0,165.313,1555.75,744.801)">
                        <path d="M0.939,-0.475L0.562,-0.475C0.625,-0.278 0.724,-0.135 0.859,-0.046C0.89,-0.026 0.922,-0.009 0.955,0.005C0.932,0.026 0.914,0.05 0.899,0.075C0.719,-0.011 0.586,-0.176 0.501,-0.42C0.442,-0.185 0.309,-0.02 0.102,0.075C0.087,0.05 0.069,0.03 0.046,0.014C0.254,-0.078 0.384,-0.241 0.435,-0.475L0.066,-0.475L0.066,-0.551L0.447,-0.551C0.456,-0.61 0.461,-0.704 0.462,-0.832L0.462,-0.835L0.542,-0.835C0.541,-0.715 0.535,-0.62 0.526,-0.551L0.939,-0.551L0.939,-0.475Z" style="fill-rule:nonzero;"/>
                    </g>
                    <g transform="matrix(165.313,0,0,165.313,1721.07,744.801)">
                        <path d="M0.918,-0.686L0.274,-0.686C0.227,-0.609 0.173,-0.543 0.112,-0.488C0.101,-0.498 0.077,-0.514 0.043,-0.536C0.126,-0.599 0.192,-0.683 0.241,-0.786C0.25,-0.804 0.257,-0.821 0.264,-0.838L0.341,-0.818C0.333,-0.799 0.322,-0.774 0.307,-0.745L0.918,-0.745L0.918,-0.686ZM0.843,-0.566L0.249,-0.566L0.249,-0.622L0.843,-0.622L0.843,-0.566ZM0.421,-0.42L0.421,-0.245L0.682,-0.245L0.682,-0.185L0.421,-0.185L0.421,-0.174L0.423,-0.176C0.526,-0.12 0.606,-0.067 0.665,-0.019C0.667,-0.017 0.669,-0.015 0.671,-0.014L0.622,0.033C0.577,-0.008 0.51,-0.056 0.421,-0.109L0.421,0.075L0.35,0.075L0.35,-0.152C0.291,-0.077 0.22,-0.014 0.138,0.036C0.126,0.043 0.115,0.05 0.104,0.056C0.089,0.034 0.073,0.016 0.057,0.002C0.131,-0.031 0.2,-0.079 0.264,-0.144C0.277,-0.158 0.289,-0.172 0.3,-0.185L0.083,-0.185L0.083,-0.245L0.35,-0.245L0.35,-0.42L0.421,-0.42ZM0.151,-0.378L0.207,-0.403C0.247,-0.356 0.274,-0.314 0.286,-0.277L0.228,-0.251C0.215,-0.291 0.189,-0.334 0.151,-0.378ZM0.566,-0.408L0.631,-0.383C0.585,-0.322 0.549,-0.277 0.523,-0.25L0.475,-0.272C0.512,-0.318 0.542,-0.363 0.566,-0.408ZM0.147,-0.5L0.786,-0.5C0.791,-0.165 0.824,0.002 0.883,0.003C0.899,0.002 0.908,-0.046 0.91,-0.14C0.927,-0.12 0.944,-0.106 0.96,-0.097C0.956,-0.013 0.944,0.038 0.924,0.059C0.912,0.07 0.897,0.075 0.878,0.075C0.812,0.075 0.767,0.014 0.743,-0.108C0.728,-0.183 0.718,-0.294 0.714,-0.441L0.147,-0.441L0.147,-0.5Z" style="fill-rule:nonzero;"/>
                    </g>
                    <g transform="matrix(165.313,0,0,165.313,1923.35,744.801)">
                        <path d="M0.28,-0.586L0.28,-0.727L0.166,-0.727L0.166,-0.586L0.28,-0.586ZM0.166,-0.16L0.28,-0.183L0.28,-0.319L0.166,-0.319L0.166,-0.16ZM0.166,-0.523L0.166,-0.381L0.28,-0.381L0.28,-0.523L0.166,-0.523ZM0.4,-0.727L0.344,-0.727L0.344,0.076L0.28,0.076L0.28,-0.117C0.185,-0.096 0.109,-0.079 0.052,-0.068L0.039,-0.137C0.046,-0.138 0.055,-0.14 0.068,-0.143C0.083,-0.145 0.094,-0.147 0.102,-0.148L0.102,-0.727L0.05,-0.727L0.05,-0.794L0.4,-0.794L0.4,-0.727ZM0.561,-0.204L0.561,-0.362L0.622,-0.362L0.622,-0.203C0.622,-0.118 0.605,-0.054 0.572,-0.009C0.546,0.026 0.51,0.055 0.463,0.078C0.454,0.061 0.442,0.045 0.425,0.029C0.492,-0.005 0.534,-0.052 0.551,-0.111L0.471,-0.111L0.471,-0.066L0.413,-0.066L0.413,-0.326L0.471,-0.326L0.471,-0.166L0.56,-0.166C0.56,-0.175 0.561,-0.188 0.561,-0.204ZM0.561,-0.516L0.608,-0.532C0.641,-0.48 0.662,-0.432 0.671,-0.389L0.622,-0.37C0.619,-0.383 0.617,-0.395 0.613,-0.405C0.581,-0.403 0.534,-0.398 0.472,-0.393C0.433,-0.389 0.404,-0.386 0.387,-0.385L0.379,-0.441L0.436,-0.445C0.457,-0.475 0.479,-0.51 0.502,-0.549C0.473,-0.59 0.437,-0.629 0.394,-0.667L0.428,-0.709C0.438,-0.701 0.446,-0.695 0.452,-0.689C0.478,-0.736 0.5,-0.785 0.518,-0.836L0.58,-0.815C0.574,-0.805 0.565,-0.788 0.553,-0.766C0.523,-0.712 0.502,-0.675 0.488,-0.655C0.508,-0.635 0.523,-0.618 0.533,-0.605C0.55,-0.637 0.568,-0.674 0.587,-0.716L0.645,-0.695C0.587,-0.59 0.537,-0.508 0.496,-0.449L0.592,-0.457C0.583,-0.476 0.573,-0.495 0.561,-0.516ZM0.963,-0.381L0.912,-0.362C0.908,-0.382 0.903,-0.397 0.898,-0.408C0.775,-0.396 0.702,-0.389 0.681,-0.387L0.671,-0.443L0.717,-0.446C0.734,-0.47 0.756,-0.504 0.782,-0.549C0.752,-0.592 0.714,-0.632 0.668,-0.669L0.702,-0.713C0.718,-0.7 0.728,-0.692 0.73,-0.69C0.757,-0.739 0.779,-0.787 0.796,-0.836L0.86,-0.815C0.808,-0.724 0.778,-0.673 0.772,-0.664C0.771,-0.661 0.769,-0.658 0.767,-0.655C0.781,-0.642 0.796,-0.624 0.812,-0.604C0.833,-0.643 0.852,-0.681 0.868,-0.718L0.929,-0.696C0.868,-0.588 0.818,-0.506 0.777,-0.45L0.876,-0.458C0.866,-0.479 0.855,-0.499 0.843,-0.518L0.891,-0.535C0.93,-0.477 0.954,-0.426 0.963,-0.381ZM0.862,-0.166L0.862,-0.326L0.92,-0.326L0.92,-0.069L0.862,-0.069L0.862,-0.111L0.766,-0.111L0.766,0.076L0.704,0.076L0.704,-0.364L0.766,-0.364L0.766,-0.166L0.862,-0.166Z" style="fill-rule:nonzero;"/>
                    </g>
                    <g transform="matrix(165.313,0,0,165.313,2088.66,744.801)">
                        <path d="M0.73,-0.254L0.271,-0.254L0.271,-0.031L0.73,-0.031L0.73,-0.254ZM0.198,0.077L0.198,-0.321L0.806,-0.321L0.806,0.077L0.73,0.077L0.73,0.036L0.271,0.036L0.271,0.077L0.198,0.077ZM0.25,-0.512L0.751,-0.512L0.751,-0.446L0.25,-0.446L0.25,-0.512ZM0.456,-0.834L0.531,-0.834C0.605,-0.732 0.701,-0.641 0.821,-0.561C0.872,-0.527 0.922,-0.499 0.97,-0.477C0.953,-0.46 0.937,-0.439 0.921,-0.413C0.804,-0.474 0.698,-0.551 0.601,-0.646C0.559,-0.686 0.525,-0.725 0.498,-0.762C0.439,-0.674 0.354,-0.59 0.241,-0.507C0.188,-0.468 0.136,-0.435 0.083,-0.407C0.072,-0.427 0.057,-0.447 0.037,-0.466C0.154,-0.525 0.26,-0.605 0.354,-0.705C0.397,-0.75 0.431,-0.793 0.456,-0.834Z" style="fill-rule:nonzero;"/>
                    </g>
                    <g transform="matrix(165.313,0,0,165.313,2253.98,744.801)">
                        <path d="M0.617,-0.05L0.617,-0.763L0.91,-0.763L0.91,-0.249C0.91,-0.215 0.901,-0.194 0.882,-0.185C0.881,-0.184 0.88,-0.183 0.879,-0.183C0.86,-0.175 0.82,-0.171 0.759,-0.171C0.752,-0.199 0.745,-0.22 0.736,-0.235C0.753,-0.235 0.783,-0.234 0.826,-0.234C0.835,-0.236 0.84,-0.241 0.841,-0.25L0.841,-0.698L0.684,-0.698L0.684,-0.05L0.617,-0.05ZM0.365,-0.238L0.365,-0.756L0.399,-0.746C0.474,-0.78 0.528,-0.81 0.562,-0.836L0.617,-0.781C0.574,-0.755 0.512,-0.727 0.432,-0.696L0.432,-0.256C0.443,-0.259 0.461,-0.264 0.484,-0.271C0.526,-0.282 0.557,-0.291 0.578,-0.296L0.587,-0.234C0.552,-0.223 0.499,-0.208 0.429,-0.188C0.375,-0.172 0.337,-0.16 0.314,-0.153L0.296,-0.221C0.303,-0.222 0.314,-0.225 0.328,-0.229C0.344,-0.233 0.357,-0.236 0.365,-0.238ZM0.307,-0.705L0.255,-0.654C0.225,-0.691 0.176,-0.729 0.109,-0.769C0.104,-0.772 0.098,-0.776 0.093,-0.778L0.142,-0.824C0.215,-0.785 0.268,-0.747 0.303,-0.71C0.304,-0.708 0.305,-0.706 0.307,-0.705ZM0.278,-0.51L0.227,-0.457C0.191,-0.494 0.14,-0.531 0.071,-0.567C0.065,-0.571 0.059,-0.574 0.054,-0.576L0.103,-0.624C0.17,-0.593 0.225,-0.559 0.268,-0.52C0.272,-0.516 0.276,-0.512 0.278,-0.51ZM0.253,-0.375L0.253,-0.125C0.299,-0.055 0.383,-0.017 0.505,-0.012C0.657,-0.008 0.803,-0.01 0.943,-0.018C0.95,-0.018 0.956,-0.018 0.961,-0.019C0.949,0.002 0.94,0.027 0.936,0.055C0.782,0.06 0.639,0.061 0.506,0.058C0.382,0.052 0.289,0.016 0.229,-0.051C0.226,-0.054 0.223,-0.057 0.221,-0.061C0.186,-0.027 0.138,0.015 0.076,0.067L0.037,-0.006C0.083,-0.038 0.131,-0.076 0.181,-0.12L0.181,-0.306L0.05,-0.306L0.05,-0.375L0.253,-0.375Z" style="fill-rule:nonzero;"/>
                    </g>
                    <g transform="matrix(165.313,0,0,165.313,2419.29,744.801)">
                        <path d="M0.503,-0.732L0.503,-0.67L0.065,-0.67L0.065,-0.732L0.249,-0.732L0.249,-0.833L0.321,-0.833L0.321,-0.732L0.503,-0.732ZM0.388,-0.51L0.328,-0.523C0.354,-0.581 0.37,-0.629 0.378,-0.668L0.446,-0.652C0.42,-0.583 0.401,-0.536 0.388,-0.51ZM0.226,-0.524L0.164,-0.507C0.16,-0.551 0.146,-0.599 0.125,-0.651L0.183,-0.666C0.205,-0.618 0.219,-0.571 0.226,-0.524ZM0.479,-0.123L0.435,-0.068C0.413,-0.093 0.375,-0.13 0.321,-0.18L0.321,0.074L0.249,0.074L0.249,-0.189C0.197,-0.107 0.141,-0.043 0.082,0.004C0.067,-0.017 0.05,-0.035 0.032,-0.05C0.091,-0.088 0.148,-0.146 0.201,-0.224C0.213,-0.241 0.224,-0.258 0.233,-0.275L0.054,-0.275L0.054,-0.338L0.249,-0.338L0.249,-0.443L0.051,-0.443L0.051,-0.506L0.515,-0.506L0.515,-0.443L0.321,-0.443L0.321,-0.338L0.507,-0.338L0.507,-0.275L0.321,-0.275L0.321,-0.251C0.374,-0.212 0.425,-0.171 0.474,-0.127C0.476,-0.126 0.477,-0.124 0.479,-0.123ZM0.956,-0.502L0.956,-0.432L0.844,-0.432L0.844,0.07L0.771,0.07L0.771,-0.432L0.622,-0.432L0.622,-0.407C0.622,-0.205 0.577,-0.051 0.488,0.054C0.48,0.063 0.471,0.073 0.463,0.081C0.454,0.065 0.438,0.05 0.417,0.034C0.414,0.032 0.412,0.031 0.41,0.029C0.495,-0.054 0.542,-0.177 0.549,-0.339C0.55,-0.36 0.551,-0.383 0.551,-0.408L0.551,-0.756L0.605,-0.739C0.731,-0.767 0.824,-0.796 0.883,-0.825L0.943,-0.77C0.875,-0.739 0.768,-0.709 0.622,-0.68L0.622,-0.502L0.956,-0.502Z" style="fill-rule:nonzero;"/>
                    </g>
                    <g transform="matrix(165.313,0,0,165.313,2584.6,744.801)">
                        <path d="M0.16,-0.683L0.16,-0.575L0.087,-0.575L0.087,-0.751L0.462,-0.751L0.462,-0.836L0.536,-0.836L0.536,-0.751L0.917,-0.751L0.917,-0.588L0.842,-0.588L0.842,-0.683L0.16,-0.683ZM0.27,-0.631L0.338,-0.609C0.312,-0.554 0.285,-0.505 0.256,-0.462L0.256,0.076L0.185,0.076L0.185,-0.366C0.145,-0.319 0.107,-0.281 0.072,-0.251C0.057,-0.276 0.042,-0.298 0.025,-0.316C0.111,-0.383 0.182,-0.468 0.24,-0.573C0.251,-0.593 0.261,-0.612 0.27,-0.631ZM0.809,-0.216L0.809,-0.33L0.464,-0.33L0.464,-0.216L0.809,-0.216ZM0.464,-0.025L0.809,-0.025L0.809,-0.154L0.464,-0.154L0.464,-0.025ZM0.922,-0.5L0.668,-0.5C0.662,-0.481 0.651,-0.446 0.634,-0.395L0.881,-0.395L0.881,0.075L0.809,0.075L0.809,0.04L0.464,0.04L0.464,0.078L0.394,0.078L0.394,-0.395L0.561,-0.395C0.572,-0.434 0.581,-0.469 0.586,-0.5L0.346,-0.5L0.346,-0.567L0.922,-0.567L0.922,-0.5Z" style="fill-rule:nonzero;"/>
                    </g>
                    <g transform="matrix(165.313,0,0,165.313,2749.92,744.801)">
                        <path d="M0.864,-0.791L0.927,-0.767C0.893,-0.726 0.86,-0.692 0.829,-0.663L0.782,-0.684C0.813,-0.717 0.841,-0.753 0.864,-0.791ZM0.533,-0.65L0.485,-0.68C0.522,-0.705 0.55,-0.742 0.569,-0.791L0.619,-0.772C0.597,-0.718 0.568,-0.677 0.533,-0.65ZM0.426,-0.789L0.487,-0.765C0.455,-0.724 0.426,-0.691 0.398,-0.666L0.354,-0.686C0.386,-0.725 0.41,-0.76 0.426,-0.789ZM0.152,-0.792L0.202,-0.774C0.181,-0.716 0.153,-0.674 0.118,-0.65L0.071,-0.679C0.109,-0.704 0.136,-0.742 0.152,-0.792ZM0.456,-0.576L0.411,-0.529C0.384,-0.551 0.338,-0.583 0.273,-0.623C0.238,-0.576 0.175,-0.54 0.085,-0.517C0.079,-0.534 0.068,-0.55 0.052,-0.566C0.05,-0.568 0.049,-0.57 0.048,-0.57C0.135,-0.59 0.193,-0.622 0.223,-0.666C0.246,-0.702 0.26,-0.759 0.265,-0.837L0.33,-0.837C0.326,-0.768 0.316,-0.714 0.302,-0.675C0.375,-0.631 0.427,-0.598 0.456,-0.576ZM0.78,-0.007L0.78,-0.098L0.238,-0.098L0.238,-0.007L0.78,-0.007ZM0.303,-0.343L0.303,-0.265L0.698,-0.265L0.698,-0.343L0.303,-0.343ZM0.771,-0.214L0.538,-0.214C0.535,-0.207 0.527,-0.187 0.513,-0.153L0.854,-0.153L0.854,0.075L0.78,0.075L0.78,0.049L0.238,0.049L0.238,0.076L0.168,0.076L0.168,-0.153L0.441,-0.153C0.446,-0.169 0.451,-0.189 0.458,-0.214L0.233,-0.214L0.233,-0.394L0.771,-0.394L0.771,-0.214ZM0.928,-0.561L0.89,-0.516L0.916,-0.516L0.916,-0.335L0.843,-0.335L0.843,-0.456L0.158,-0.456L0.158,-0.335L0.086,-0.335L0.086,-0.516L0.874,-0.516C0.832,-0.546 0.771,-0.583 0.693,-0.626C0.656,-0.579 0.595,-0.545 0.51,-0.522C0.502,-0.542 0.49,-0.561 0.473,-0.578C0.559,-0.598 0.616,-0.631 0.645,-0.677C0.666,-0.711 0.679,-0.765 0.684,-0.837L0.753,-0.837C0.749,-0.774 0.739,-0.721 0.723,-0.679C0.808,-0.636 0.876,-0.597 0.928,-0.561Z" style="fill-rule:nonzero;"/>
                    </g>
                </g>
            </g>
        </g>
        <g transform="matrix(0.127041,0,0,0.127041,-2.78046,5.38302)">
            <g id="LOGO1" serif:id="LOGO" transform="matrix(0.460612,0,0,0.460612,-3.87845,449.152)">
                <g id="outer-ring1" serif:id="outer ring" transform="matrix(0.975,0,0,0.975,16.936,12.7749)">
                    <g id="y2" serif:id="y" transform="matrix(1.57233,0,0,1.82815,-211.572,-384.132)">
                        <path d="M587.204,248.633C552.217,237.63 515.253,232 478,232C302.491,232 160,354.551 160,505.5C160,656.449 302.491,779 478,779C611.514,779 730.811,707.27 776.661,599.422L717.939,580.956C681.104,667.598 585.263,725.225 478,725.225C336.999,725.225 222.525,626.769 222.525,505.5C222.525,384.231 336.999,285.775 478,285.775C507.928,285.775 537.624,290.298 565.733,299.138L587.204,248.633Z" style="fill:rgb(168,168,168);"/>
                    </g>
                    <g id="o2" serif:id="o" transform="matrix(1.57233,0,0,1.82815,-211.572,-384.132)">
                        <path d="M478,232C302.373,232 160,354.45 160,505.5C160,656.449 302.491,779 478,779C611.514,779 730.811,707.27 776.661,599.422L717.939,580.956C681.104,667.598 585.263,725.225 478,725.225C336.999,725.225 222.525,626.769 222.525,505.5C222.525,384.149 336.905,285.775 478,285.775L478,232Z" style="fill:rgb(167,167,167);"/>
                    </g>
                    <g id="bl1" serif:id="bl" transform="matrix(1.57233,0,0,1.82815,-211.572,-384.132)">
                        <path d="M368.796,248.633C243.401,288.067 160,390.669 160,505.5C160,656.449 302.491,779 478,779C611.514,779 730.811,707.27 776.661,599.422L717.939,580.956C681.104,667.598 585.263,725.225 478,725.225C336.999,725.225 222.525,626.769 222.525,505.5C222.525,413.247 289.528,330.818 390.267,299.138L368.796,248.633Z" style="fill:rgb(155,155,155);"/>
                    </g>
                    <g id="bk1" serif:id="bk" transform="matrix(1.57233,0,0,1.82815,-211.572,-384.132)">
                        <path d="M179.339,411.578C166.546,441.669 160,473.46 160,505.5C160,656.449 302.491,779 478,779C611.514,779 730.811,707.27 776.661,599.422L717.939,580.956C681.104,667.598 585.263,725.225 478,725.225C336.999,725.225 222.525,626.769 222.525,505.5C222.525,479.76 227.784,454.219 238.061,430.044L179.339,411.578Z"/>
                    </g>
                </g>
                <g id="inner-ring1" serif:id="inner ring">
                    <g id="b1" serif:id="b" transform="matrix(1.17767,0,0,1.36929,-22.9277,-152.175)">
                        <path d="M368.796,248.633C243.401,288.067 160,390.669 160,505.5C160,656.449 302.491,779 478,779C611.514,779 730.811,707.27 776.661,599.422L770.688,597.544C725.755,703.234 608.844,773.53 478,773.53C306.001,773.53 166.36,653.43 166.36,505.5C166.36,392.966 248.093,292.415 370.98,253.77L368.796,248.633Z" style="fill:rgb(155,155,155);"/>
                    </g>
                    <g id="o3" serif:id="o" transform="matrix(1.10377,0,0,1.28336,14.4922,-109.465)">
                        <path d="M478,232C302.373,232 160,354.45 160,505.5C160,656.449 302.491,779 478,779C634.708,779 768.056,680.812 792.202,547.643L785.918,546.8C762.255,677.306 631.574,773.53 478,773.53C306.001,773.53 166.36,653.43 166.36,505.5C166.36,357.471 305.886,237.47 478,237.47L478,232Z" style="fill:rgb(167,167,167);"/>
                    </g>
                    <g id="y3" serif:id="y" transform="matrix(1.02201,0,0,1.1883,51.478,-60.6856)">
                        <path d="M587.204,248.633C552.217,237.63 515.253,232 478,232C302.491,232 160,354.551 160,505.5C160,656.449 302.491,779 478,779C653.627,779 796,656.55 796,505.5L789.64,505.5C789.64,653.529 650.114,773.53 478,773.53C306.001,773.53 166.36,653.43 166.36,505.5C166.36,357.57 306.001,237.47 478,237.47C514.508,237.47 550.732,242.987 585.02,253.77L587.204,248.633Z" style="fill:rgb(168,168,168);"/>
                    </g>
                </g>
            </g>
            <g transform="matrix(1,0,0,1,-32.1136,507.186)">
                <g transform="matrix(0.841579,0,0,0.841579,224,-408.469)">
                    <g transform="matrix(165.313,0,0,165.313,362.561,744.801)">
                        <path d="M0.635,0L0.028,0L0.215,-0.194C0.264,-0.245 0.303,-0.289 0.331,-0.325C0.359,-0.36 0.38,-0.39 0.394,-0.415C0.407,-0.44 0.416,-0.46 0.419,-0.475C0.422,-0.49 0.424,-0.503 0.424,-0.514C0.424,-0.525 0.422,-0.536 0.419,-0.547C0.415,-0.558 0.409,-0.567 0.402,-0.576C0.395,-0.584 0.386,-0.591 0.376,-0.596C0.365,-0.6 0.353,-0.603 0.339,-0.603C0.312,-0.603 0.292,-0.594 0.277,-0.577C0.262,-0.56 0.254,-0.538 0.254,-0.512C0.254,-0.505 0.255,-0.494 0.257,-0.48L0.043,-0.48C0.043,-0.524 0.05,-0.564 0.065,-0.6C0.079,-0.636 0.099,-0.667 0.125,-0.693C0.151,-0.719 0.182,-0.739 0.218,-0.753C0.253,-0.767 0.292,-0.774 0.335,-0.774C0.377,-0.774 0.416,-0.767 0.452,-0.754C0.487,-0.741 0.518,-0.722 0.544,-0.698C0.57,-0.674 0.59,-0.646 0.605,-0.613C0.62,-0.58 0.627,-0.544 0.627,-0.505C0.627,-0.464 0.618,-0.426 0.601,-0.391C0.583,-0.356 0.555,-0.32 0.516,-0.283L0.391,-0.166L0.635,-0.166L0.635,0Z" style="fill:rgb(128,128,128);fill-rule:nonzero;"/>
                    </g>
                    <g transform="matrix(165.313,0,0,165.313,474.974,744.801)">
                        <path d="M0.214,-0.378C0.214,-0.345 0.217,-0.314 0.223,-0.287C0.229,-0.26 0.238,-0.236 0.249,-0.216C0.26,-0.196 0.273,-0.181 0.288,-0.17C0.303,-0.159 0.321,-0.153 0.34,-0.153C0.359,-0.153 0.376,-0.159 0.392,-0.17C0.407,-0.181 0.42,-0.196 0.431,-0.216C0.442,-0.236 0.45,-0.26 0.456,-0.287C0.462,-0.314 0.465,-0.345 0.465,-0.378C0.465,-0.411 0.462,-0.441 0.456,-0.469C0.45,-0.496 0.442,-0.52 0.431,-0.54C0.42,-0.559 0.407,-0.575 0.392,-0.586C0.376,-0.596 0.359,-0.602 0.34,-0.602C0.321,-0.602 0.303,-0.596 0.288,-0.586C0.273,-0.575 0.26,-0.559 0.249,-0.54C0.238,-0.52 0.229,-0.496 0.223,-0.469C0.217,-0.441 0.214,-0.411 0.214,-0.378ZM0.02,-0.378C0.02,-0.438 0.028,-0.493 0.044,-0.542C0.059,-0.591 0.081,-0.632 0.11,-0.667C0.138,-0.702 0.171,-0.729 0.211,-0.748C0.25,-0.767 0.293,-0.776 0.34,-0.776C0.387,-0.776 0.43,-0.767 0.469,-0.748C0.508,-0.729 0.542,-0.702 0.57,-0.667C0.598,-0.632 0.62,-0.591 0.636,-0.542C0.651,-0.493 0.659,-0.438 0.659,-0.378C0.659,-0.318 0.651,-0.264 0.636,-0.215C0.62,-0.166 0.598,-0.124 0.57,-0.089C0.542,-0.054 0.508,-0.027 0.469,-0.008C0.43,0.012 0.387,0.021 0.34,0.021C0.293,0.021 0.25,0.012 0.211,-0.008C0.171,-0.027 0.138,-0.054 0.11,-0.089C0.081,-0.124 0.059,-0.166 0.044,-0.215C0.028,-0.264 0.02,-0.318 0.02,-0.378Z" style="fill:rgb(128,128,128);fill-rule:nonzero;"/>
                    </g>
                    <g transform="matrix(165.313,0,0,165.313,587.387,744.801)">
                        <path d="M0.635,0L0.028,0L0.215,-0.194C0.264,-0.245 0.303,-0.289 0.331,-0.325C0.359,-0.36 0.38,-0.39 0.394,-0.415C0.407,-0.44 0.416,-0.46 0.419,-0.475C0.422,-0.49 0.424,-0.503 0.424,-0.514C0.424,-0.525 0.422,-0.536 0.419,-0.547C0.415,-0.558 0.409,-0.567 0.402,-0.576C0.395,-0.584 0.386,-0.591 0.376,-0.596C0.365,-0.6 0.353,-0.603 0.339,-0.603C0.312,-0.603 0.292,-0.594 0.277,-0.577C0.262,-0.56 0.254,-0.538 0.254,-0.512C0.254,-0.505 0.255,-0.494 0.257,-0.48L0.043,-0.48C0.043,-0.524 0.05,-0.564 0.065,-0.6C0.079,-0.636 0.099,-0.667 0.125,-0.693C0.151,-0.719 0.182,-0.739 0.218,-0.753C0.253,-0.767 0.292,-0.774 0.335,-0.774C0.377,-0.774 0.416,-0.767 0.452,-0.754C0.487,-0.741 0.518,-0.722 0.544,-0.698C0.57,-0.674 0.59,-0.646 0.605,-0.613C0.62,-0.58 0.627,-0.544 0.627,-0.505C0.627,-0.464 0.618,-0.426 0.601,-0.391C0.583,-0.356 0.555,-0.32 0.516,-0.283L0.391,-0.166L0.635,-0.166L0.635,0Z" style="fill:rgb(128,128,128);fill-rule:nonzero;"/>
                    </g>
                    <g transform="matrix(165.313,0,0,165.313,699.8,744.801)">
                        <path d="M0.214,-0.378C0.214,-0.345 0.217,-0.314 0.223,-0.287C0.229,-0.26 0.238,-0.236 0.249,-0.216C0.26,-0.196 0.273,-0.181 0.288,-0.17C0.303,-0.159 0.321,-0.153 0.34,-0.153C0.359,-0.153 0.376,-0.159 0.392,-0.17C0.407,-0.181 0.42,-0.196 0.431,-0.216C0.442,-0.236 0.45,-0.26 0.456,-0.287C0.462,-0.314 0.465,-0.345 0.465,-0.378C0.465,-0.411 0.462,-0.441 0.456,-0.469C0.45,-0.496 0.442,-0.52 0.431,-0.54C0.42,-0.559 0.407,-0.575 0.392,-0.586C0.376,-0.596 0.359,-0.602 0.34,-0.602C0.321,-0.602 0.303,-0.596 0.288,-0.586C0.273,-0.575 0.26,-0.559 0.249,-0.54C0.238,-0.52 0.229,-0.496 0.223,-0.469C0.217,-0.441 0.214,-0.411 0.214,-0.378ZM0.02,-0.378C0.02,-0.438 0.028,-0.493 0.044,-0.542C0.059,-0.591 0.081,-0.632 0.11,-0.667C0.138,-0.702 0.171,-0.729 0.211,-0.748C0.25,-0.767 0.293,-0.776 0.34,-0.776C0.387,-0.776 0.43,-0.767 0.469,-0.748C0.508,-0.729 0.542,-0.702 0.57,-0.667C0.598,-0.632 0.62,-0.591 0.636,-0.542C0.651,-0.493 0.659,-0.438 0.659,-0.378C0.659,-0.318 0.651,-0.264 0.636,-0.215C0.62,-0.166 0.598,-0.124 0.57,-0.089C0.542,-0.054 0.508,-0.027 0.469,-0.008C0.43,0.012 0.387,0.021 0.34,0.021C0.293,0.021 0.25,0.012 0.211,-0.008C0.171,-0.027 0.138,-0.054 0.11,-0.089C0.081,-0.124 0.059,-0.166 0.044,-0.215C0.028,-0.264 0.02,-0.318 0.02,-0.378Z" style="fill:rgb(128,128,128);fill-rule:nonzero;"/>
                    </g>
                    <g transform="matrix(165.313,0,0,165.313,868.419,744.801)">
                        <path d="M0.622,-0.502C0.577,-0.557 0.521,-0.585 0.454,-0.585C0.425,-0.585 0.398,-0.58 0.373,-0.569C0.347,-0.558 0.326,-0.544 0.308,-0.526C0.29,-0.507 0.276,-0.485 0.266,-0.46C0.255,-0.435 0.25,-0.407 0.25,-0.378C0.25,-0.348 0.255,-0.32 0.266,-0.295C0.276,-0.27 0.29,-0.248 0.309,-0.229C0.327,-0.21 0.348,-0.196 0.373,-0.185C0.398,-0.174 0.424,-0.169 0.453,-0.169C0.516,-0.169 0.572,-0.196 0.622,-0.249L0.622,-0.017L0.602,-0.01C0.572,0.001 0.544,0.009 0.518,0.014C0.492,0.019 0.466,0.021 0.441,0.021C0.389,0.021 0.339,0.011 0.292,-0.009C0.244,-0.028 0.202,-0.056 0.166,-0.092C0.129,-0.127 0.1,-0.169 0.078,-0.219C0.056,-0.268 0.045,-0.321 0.045,-0.379C0.045,-0.437 0.056,-0.49 0.078,-0.539C0.099,-0.587 0.128,-0.628 0.165,-0.664C0.201,-0.699 0.243,-0.726 0.291,-0.746C0.339,-0.765 0.389,-0.775 0.442,-0.775C0.472,-0.775 0.501,-0.772 0.531,-0.766C0.56,-0.759 0.59,-0.749 0.622,-0.736L0.622,-0.502Z" style="fill:rgb(128,128,128);fill-rule:nonzero;"/>
                    </g>
                    <g transform="matrix(165.313,0,0,165.313,978.683,744.801)">
                        <path d="M0.275,-0.754L0.275,-0.166L0.51,-0.166L0.51,0L0.079,0L0.079,-0.754L0.275,-0.754Z" style="fill:rgb(128,128,128);fill-rule:nonzero;"/>
                    </g>
                    <g transform="matrix(165.313,0,0,165.313,1066.63,744.801)">
                        <rect x="0.079" y="-0.754" width="0.196" height="0.754" style="fill:rgb(128,128,128);fill-rule:nonzero;"/>
                    </g>
                    <g transform="matrix(165.313,0,0,165.313,1125.15,744.801)">
                        <path d="M0.045,0L0.173,-0.754L0.367,-0.754L0.518,-0.352L0.668,-0.754L0.862,-0.754L0.99,0L0.795,0L0.73,-0.434L0.552,0L0.474,0L0.305,-0.434L0.24,0L0.045,0Z" style="fill:rgb(128,128,128);fill-rule:nonzero;"/>
                    </g>
                    <g transform="matrix(165.313,0,0,165.313,1296.25,744.801)">
                        <path d="M0.489,-0.28L0.401,-0.531L0.313,-0.28L0.489,-0.28ZM0.541,-0.131L0.261,-0.131L0.216,0L0.007,0L0.294,-0.754L0.508,-0.754L0.795,0L0.586,0L0.541,-0.131Z" style="fill:rgb(128,128,128);fill-rule:nonzero;"/>
                    </g>
                    <g transform="matrix(165.313,0,0,165.313,1428.83,744.801)">
                        <path d="M0.493,-0.561C0.472,-0.578 0.45,-0.591 0.429,-0.6C0.408,-0.608 0.387,-0.612 0.367,-0.612C0.342,-0.612 0.321,-0.606 0.305,-0.594C0.289,-0.582 0.281,-0.566 0.281,-0.547C0.281,-0.534 0.285,-0.523 0.293,-0.514C0.301,-0.505 0.312,-0.498 0.325,-0.492C0.338,-0.485 0.352,-0.48 0.369,-0.475C0.385,-0.47 0.401,-0.465 0.417,-0.46C0.481,-0.439 0.528,-0.41 0.558,-0.375C0.587,-0.339 0.602,-0.292 0.602,-0.235C0.602,-0.196 0.596,-0.161 0.583,-0.13C0.57,-0.099 0.551,-0.072 0.526,-0.05C0.501,-0.027 0.47,-0.01 0.434,0.003C0.397,0.015 0.356,0.021 0.31,0.021C0.215,0.021 0.126,-0.007 0.045,-0.064L0.129,-0.222C0.158,-0.196 0.187,-0.177 0.216,-0.164C0.245,-0.151 0.273,-0.145 0.301,-0.145C0.333,-0.145 0.357,-0.152 0.373,-0.167C0.388,-0.182 0.396,-0.198 0.396,-0.217C0.396,-0.228 0.394,-0.238 0.39,-0.247C0.386,-0.255 0.379,-0.263 0.37,-0.27C0.361,-0.277 0.349,-0.283 0.334,-0.289C0.319,-0.295 0.3,-0.302 0.279,-0.309C0.254,-0.317 0.229,-0.326 0.205,-0.336C0.18,-0.345 0.159,-0.358 0.14,-0.374C0.121,-0.39 0.105,-0.41 0.094,-0.435C0.082,-0.459 0.076,-0.49 0.076,-0.527C0.076,-0.564 0.082,-0.598 0.095,-0.629C0.107,-0.659 0.124,-0.685 0.147,-0.707C0.169,-0.728 0.196,-0.745 0.229,-0.757C0.261,-0.769 0.297,-0.775 0.337,-0.775C0.374,-0.775 0.413,-0.77 0.454,-0.76C0.495,-0.749 0.534,-0.734 0.571,-0.714L0.493,-0.561Z" style="fill:rgb(128,128,128);fill-rule:nonzero;"/>
                    </g>
                </g>
                <g transform="matrix(0.262379,0,0,0.262379,591.718,75.3119)">
                    <g transform="matrix(165.313,0,0,165.313,362.561,744.801)">
                        <path d="M0.738,-0.277L0.259,-0.277L0.259,-0.039L0.738,-0.039L0.738,-0.277ZM0.184,0.076L0.184,-0.347L0.817,-0.347L0.817,0.074L0.738,0.074L0.738,0.032L0.259,0.032L0.259,0.076L0.184,0.076ZM0.622,-0.68L0.68,-0.722C0.775,-0.646 0.852,-0.571 0.912,-0.496C0.928,-0.477 0.94,-0.459 0.95,-0.443L0.886,-0.394C0.869,-0.422 0.845,-0.454 0.815,-0.49C0.728,-0.486 0.48,-0.475 0.072,-0.457L0.067,-0.531C0.091,-0.532 0.141,-0.534 0.217,-0.536C0.286,-0.641 0.341,-0.742 0.383,-0.84L0.465,-0.812C0.415,-0.716 0.361,-0.625 0.303,-0.54C0.402,-0.543 0.551,-0.549 0.752,-0.559C0.708,-0.604 0.665,-0.644 0.622,-0.68Z" style="fill:rgb(128,128,128);fill-rule:nonzero;"/>
                    </g>
                    <g transform="matrix(165.313,0,0,165.313,527.874,744.801)">
                        <path d="M0.939,-0.475L0.562,-0.475C0.625,-0.278 0.724,-0.135 0.859,-0.046C0.89,-0.026 0.922,-0.009 0.955,0.005C0.932,0.026 0.914,0.05 0.899,0.075C0.719,-0.011 0.586,-0.176 0.501,-0.42C0.442,-0.185 0.309,-0.02 0.102,0.075C0.087,0.05 0.069,0.03 0.046,0.014C0.254,-0.078 0.384,-0.241 0.435,-0.475L0.066,-0.475L0.066,-0.551L0.447,-0.551C0.456,-0.61 0.461,-0.704 0.462,-0.832L0.462,-0.835L0.542,-0.835C0.541,-0.715 0.535,-0.62 0.526,-0.551L0.939,-0.551L0.939,-0.475Z" style="fill:rgb(128,128,128);fill-rule:nonzero;"/>
                    </g>
                    <g transform="matrix(165.313,0,0,165.313,730.157,744.801)">
                        <path d="M0.536,-0.321L0.823,-0.321L0.823,-0.586L0.536,-0.586L0.536,-0.321ZM0.173,-0.321L0.459,-0.321L0.459,-0.586L0.173,-0.586L0.173,-0.321ZM0.536,-0.659L0.899,-0.659L0.899,-0.191L0.823,-0.191L0.823,-0.248L0.536,-0.248L0.536,0.076L0.459,0.076L0.459,-0.248L0.173,-0.248L0.173,-0.186L0.1,-0.186L0.1,-0.659L0.459,-0.659L0.459,-0.837L0.536,-0.837L0.536,-0.659Z" style="fill:rgb(128,128,128);fill-rule:nonzero;"/>
                    </g>
                    <g transform="matrix(165.313,0,0,165.313,895.47,744.801)">
                        <path d="M0.711,-0.595L0.283,-0.595C0.334,-0.457 0.406,-0.341 0.498,-0.246C0.589,-0.339 0.66,-0.455 0.711,-0.595ZM0.951,-0.595L0.797,-0.595C0.739,-0.433 0.658,-0.3 0.555,-0.194C0.669,-0.099 0.804,-0.033 0.961,0.004C0.94,0.024 0.923,0.048 0.908,0.076C0.745,0.034 0.608,-0.037 0.495,-0.138C0.388,-0.047 0.253,0.024 0.089,0.077C0.08,0.056 0.066,0.034 0.045,0.01C0.044,0.008 0.043,0.007 0.042,0.006C0.202,-0.04 0.335,-0.106 0.439,-0.192C0.337,-0.302 0.258,-0.436 0.201,-0.595L0.054,-0.595L0.054,-0.668L0.461,-0.668L0.461,-0.837L0.536,-0.837L0.536,-0.668L0.951,-0.668L0.951,-0.595Z" style="fill:rgb(128,128,128);fill-rule:nonzero;"/>
                    </g>
                    <g transform="matrix(165.313,0,0,165.313,1060.78,744.801)">
                        <path d="M0.015,0L0.194,-0.283L0.029,-0.543L0.127,-0.543L0.2,-0.423C0.207,-0.411 0.217,-0.394 0.231,-0.371C0.242,-0.354 0.249,-0.341 0.254,-0.333L0.258,-0.333C0.286,-0.384 0.302,-0.414 0.307,-0.423L0.374,-0.543L0.469,-0.543L0.304,-0.274L0.483,0L0.383,0L0.303,-0.127C0.292,-0.147 0.272,-0.179 0.245,-0.224L0.24,-0.224C0.21,-0.174 0.191,-0.141 0.184,-0.127L0.111,0L0.015,0Z" style="fill:rgb(128,128,128);fill-rule:nonzero;"/>
                    </g>
                    <g transform="matrix(165.313,0,0,165.313,1142.96,744.801)">
                        <path d="M0.592,-0.708L0.486,-0.708C0.46,-0.675 0.43,-0.646 0.397,-0.621C0.381,-0.637 0.362,-0.65 0.341,-0.658C0.41,-0.706 0.46,-0.766 0.492,-0.837L0.559,-0.826C0.55,-0.807 0.539,-0.786 0.525,-0.764L0.867,-0.764L0.879,-0.767L0.929,-0.752C0.893,-0.689 0.86,-0.642 0.829,-0.61L0.769,-0.631C0.791,-0.652 0.812,-0.677 0.83,-0.708L0.67,-0.708C0.687,-0.649 0.725,-0.605 0.785,-0.576C0.828,-0.555 0.884,-0.539 0.953,-0.528C0.938,-0.512 0.925,-0.492 0.915,-0.468C0.776,-0.493 0.685,-0.545 0.64,-0.625C0.638,-0.628 0.636,-0.631 0.635,-0.634C0.603,-0.574 0.542,-0.53 0.453,-0.503C0.43,-0.496 0.406,-0.491 0.38,-0.485C0.373,-0.502 0.362,-0.519 0.345,-0.538C0.45,-0.557 0.521,-0.589 0.557,-0.635C0.572,-0.655 0.584,-0.679 0.592,-0.708ZM0.255,-0.202L0.255,-0.132L0.756,-0.132L0.756,-0.202L0.255,-0.202ZM0.255,-0.319L0.255,-0.25L0.756,-0.25L0.756,-0.319L0.255,-0.319ZM0.255,-0.434L0.255,-0.367L0.756,-0.367L0.756,-0.434L0.255,-0.434ZM0.183,-0.083L0.183,-0.484L0.83,-0.484L0.83,-0.083L0.183,-0.083ZM0.337,-0.765L0.337,-0.705L0.078,-0.705L0.078,-0.765L0.337,-0.765ZM0.343,-0.62L0.35,-0.566C0.328,-0.56 0.235,-0.534 0.069,-0.487L0.044,-0.548C0.07,-0.554 0.17,-0.578 0.343,-0.62ZM0.35,-0.073L0.417,-0.041C0.338,0.005 0.236,0.045 0.112,0.079C0.084,0.049 0.066,0.031 0.057,0.023C0.186,-0.004 0.283,-0.036 0.35,-0.073ZM0.583,-0.032L0.644,-0.07C0.773,-0.029 0.873,0.008 0.944,0.041L0.862,0.078C0.799,0.046 0.706,0.009 0.583,-0.032Z" style="fill:rgb(128,128,128);fill-rule:nonzero;"/>
                    </g>
                    <g transform="matrix(165.313,0,0,165.313,1308.27,744.801)">
                        <path d="M0.768,-0.112L0.299,-0.112L0.299,-0.015L0.768,-0.015L0.768,-0.112ZM0.704,-0.38L0.299,-0.38L0.299,-0.295L0.704,-0.295L0.704,-0.38ZM0.299,-0.238L0.299,-0.17L0.841,-0.17L0.841,0.075L0.768,0.075L0.768,0.043L0.299,0.043L0.299,0.077L0.229,0.077L0.229,-0.437L0.777,-0.437L0.777,-0.238L0.299,-0.238ZM0.954,-0.761L0.954,-0.699L0.735,-0.699C0.761,-0.667 0.779,-0.64 0.789,-0.617L0.721,-0.594C0.71,-0.622 0.688,-0.658 0.654,-0.699L0.574,-0.699C0.56,-0.68 0.541,-0.659 0.518,-0.636L0.533,-0.636L0.533,-0.558L0.922,-0.558L0.922,-0.371L0.85,-0.371L0.85,-0.499L0.155,-0.499L0.155,-0.371L0.085,-0.371L0.085,-0.558L0.462,-0.558L0.462,-0.621C0.448,-0.63 0.435,-0.637 0.421,-0.644C0.445,-0.66 0.466,-0.679 0.483,-0.699L0.305,-0.699C0.325,-0.663 0.338,-0.636 0.344,-0.617L0.278,-0.597C0.272,-0.618 0.257,-0.652 0.231,-0.699L0.188,-0.699C0.162,-0.66 0.133,-0.625 0.102,-0.593C0.079,-0.61 0.059,-0.624 0.041,-0.633C0.1,-0.684 0.146,-0.75 0.18,-0.829C0.182,-0.833 0.183,-0.837 0.185,-0.841L0.254,-0.823C0.247,-0.804 0.237,-0.784 0.225,-0.761L0.487,-0.761L0.487,-0.703C0.527,-0.747 0.556,-0.793 0.575,-0.841L0.646,-0.824C0.637,-0.8 0.626,-0.779 0.615,-0.761L0.954,-0.761Z" style="fill:rgb(128,128,128);fill-rule:nonzero;"/>
                    </g>
                    <g transform="matrix(165.313,0,0,165.313,1473.58,744.801)">
                        <path d="M0.015,0L0.194,-0.283L0.029,-0.543L0.127,-0.543L0.2,-0.423C0.207,-0.411 0.217,-0.394 0.231,-0.371C0.242,-0.354 0.249,-0.341 0.254,-0.333L0.258,-0.333C0.286,-0.384 0.302,-0.414 0.307,-0.423L0.374,-0.543L0.469,-0.543L0.304,-0.274L0.483,0L0.383,0L0.303,-0.127C0.292,-0.147 0.272,-0.179 0.245,-0.224L0.24,-0.224C0.21,-0.174 0.191,-0.141 0.184,-0.127L0.111,0L0.015,0Z" style="fill:rgb(128,128,128);fill-rule:nonzero;"/>
                    </g>
                    <g transform="matrix(165.313,0,0,165.313,1555.75,744.801)">
                        <path d="M0.939,-0.475L0.562,-0.475C0.625,-0.278 0.724,-0.135 0.859,-0.046C0.89,-0.026 0.922,-0.009 0.955,0.005C0.932,0.026 0.914,0.05 0.899,0.075C0.719,-0.011 0.586,-0.176 0.501,-0.42C0.442,-0.185 0.309,-0.02 0.102,0.075C0.087,0.05 0.069,0.03 0.046,0.014C0.254,-0.078 0.384,-0.241 0.435,-0.475L0.066,-0.475L0.066,-0.551L0.447,-0.551C0.456,-0.61 0.461,-0.704 0.462,-0.832L0.462,-0.835L0.542,-0.835C0.541,-0.715 0.535,-0.62 0.526,-0.551L0.939,-0.551L0.939,-0.475Z" style="fill:rgb(128,128,128);fill-rule:nonzero;"/>
                    </g>
                    <g transform="matrix(165.313,0,0,165.313,1721.07,744.801)">
                        <path d="M0.918,-0.686L0.274,-0.686C0.227,-0.609 0.173,-0.543 0.112,-0.488C0.101,-0.498 0.077,-0.514 0.043,-0.536C0.126,-0.599 0.192,-0.683 0.241,-0.786C0.25,-0.804 0.257,-0.821 0.264,-0.838L0.341,-0.818C0.333,-0.799 0.322,-0.774 0.307,-0.745L0.918,-0.745L0.918,-0.686ZM0.843,-0.566L0.249,-0.566L0.249,-0.622L0.843,-0.622L0.843,-0.566ZM0.421,-0.42L0.421,-0.245L0.682,-0.245L0.682,-0.185L0.421,-0.185L0.421,-0.174L0.423,-0.176C0.526,-0.12 0.606,-0.067 0.665,-0.019C0.667,-0.017 0.669,-0.015 0.671,-0.014L0.622,0.033C0.577,-0.008 0.51,-0.056 0.421,-0.109L0.421,0.075L0.35,0.075L0.35,-0.152C0.291,-0.077 0.22,-0.014 0.138,0.036C0.126,0.043 0.115,0.05 0.104,0.056C0.089,0.034 0.073,0.016 0.057,0.002C0.131,-0.031 0.2,-0.079 0.264,-0.144C0.277,-0.158 0.289,-0.172 0.3,-0.185L0.083,-0.185L0.083,-0.245L0.35,-0.245L0.35,-0.42L0.421,-0.42ZM0.151,-0.378L0.207,-0.403C0.247,-0.356 0.274,-0.314 0.286,-0.277L0.228,-0.251C0.215,-0.291 0.189,-0.334 0.151,-0.378ZM0.566,-0.408L0.631,-0.383C0.585,-0.322 0.549,-0.277 0.523,-0.25L0.475,-0.272C0.512,-0.318 0.542,-0.363 0.566,-0.408ZM0.147,-0.5L0.786,-0.5C0.791,-0.165 0.824,0.002 0.883,0.003C0.899,0.002 0.908,-0.046 0.91,-0.14C0.927,-0.12 0.944,-0.106 0.96,-0.097C0.956,-0.013 0.944,0.038 0.924,0.059C0.912,0.07 0.897,0.075 0.878,0.075C0.812,0.075 0.767,0.014 0.743,-0.108C0.728,-0.183 0.718,-0.294 0.714,-0.441L0.147,-0.441L0.147,-0.5Z" style="fill:rgb(128,128,128);fill-rule:nonzero;"/>
                    </g>
                    <g transform="matrix(165.313,0,0,165.313,1923.35,744.801)">
                        <path d="M0.28,-0.586L0.28,-0.727L0.166,-0.727L0.166,-0.586L0.28,-0.586ZM0.166,-0.16L0.28,-0.183L0.28,-0.319L0.166,-0.319L0.166,-0.16ZM0.166,-0.523L0.166,-0.381L0.28,-0.381L0.28,-0.523L0.166,-0.523ZM0.4,-0.727L0.344,-0.727L0.344,0.076L0.28,0.076L0.28,-0.117C0.185,-0.096 0.109,-0.079 0.052,-0.068L0.039,-0.137C0.046,-0.138 0.055,-0.14 0.068,-0.143C0.083,-0.145 0.094,-0.147 0.102,-0.148L0.102,-0.727L0.05,-0.727L0.05,-0.794L0.4,-0.794L0.4,-0.727ZM0.561,-0.204L0.561,-0.362L0.622,-0.362L0.622,-0.203C0.622,-0.118 0.605,-0.054 0.572,-0.009C0.546,0.026 0.51,0.055 0.463,0.078C0.454,0.061 0.442,0.045 0.425,0.029C0.492,-0.005 0.534,-0.052 0.551,-0.111L0.471,-0.111L0.471,-0.066L0.413,-0.066L0.413,-0.326L0.471,-0.326L0.471,-0.166L0.56,-0.166C0.56,-0.175 0.561,-0.188 0.561,-0.204ZM0.561,-0.516L0.608,-0.532C0.641,-0.48 0.662,-0.432 0.671,-0.389L0.622,-0.37C0.619,-0.383 0.617,-0.395 0.613,-0.405C0.581,-0.403 0.534,-0.398 0.472,-0.393C0.433,-0.389 0.404,-0.386 0.387,-0.385L0.379,-0.441L0.436,-0.445C0.457,-0.475 0.479,-0.51 0.502,-0.549C0.473,-0.59 0.437,-0.629 0.394,-0.667L0.428,-0.709C0.438,-0.701 0.446,-0.695 0.452,-0.689C0.478,-0.736 0.5,-0.785 0.518,-0.836L0.58,-0.815C0.574,-0.805 0.565,-0.788 0.553,-0.766C0.523,-0.712 0.502,-0.675 0.488,-0.655C0.508,-0.635 0.523,-0.618 0.533,-0.605C0.55,-0.637 0.568,-0.674 0.587,-0.716L0.645,-0.695C0.587,-0.59 0.537,-0.508 0.496,-0.449L0.592,-0.457C0.583,-0.476 0.573,-0.495 0.561,-0.516ZM0.963,-0.381L0.912,-0.362C0.908,-0.382 0.903,-0.397 0.898,-0.408C0.775,-0.396 0.702,-0.389 0.681,-0.387L0.671,-0.443L0.717,-0.446C0.734,-0.47 0.756,-0.504 0.782,-0.549C0.752,-0.592 0.714,-0.632 0.668,-0.669L0.702,-0.713C0.718,-0.7 0.728,-0.692 0.73,-0.69C0.757,-0.739 0.779,-0.787 0.796,-0.836L0.86,-0.815C0.808,-0.724 0.778,-0.673 0.772,-0.664C0.771,-0.661 0.769,-0.658 0.767,-0.655C0.781,-0.642 0.796,-0.624 0.812,-0.604C0.833,-0.643 0.852,-0.681 0.868,-0.718L0.929,-0.696C0.868,-0.588 0.818,-0.506 0.777,-0.45L0.876,-0.458C0.866,-0.479 0.855,-0.499 0.843,-0.518L0.891,-0.535C0.93,-0.477 0.954,-0.426 0.963,-0.381ZM0.862,-0.166L0.862,-0.326L0.92,-0.326L0.92,-0.069L0.862,-0.069L0.862,-0.111L0.766,-0.111L0.766,0.076L0.704,0.076L0.704,-0.364L0.766,-0.364L0.766,-0.166L0.862,-0.166Z" style="fill:rgb(128,128,128);fill-rule:nonzero;"/>
                    </g>
                    <g transform="matrix(165.313,0,0,165.313,2088.66,744.801)">
                        <path d="M0.73,-0.254L0.271,-0.254L0.271,-0.031L0.73,-0.031L0.73,-0.254ZM0.198,0.077L0.198,-0.321L0.806,-0.321L0.806,0.077L0.73,0.077L0.73,0.036L0.271,0.036L0.271,0.077L0.198,0.077ZM0.25,-0.512L0.751,-0.512L0.751,-0.446L0.25,-0.446L0.25,-0.512ZM0.456,-0.834L0.531,-0.834C0.605,-0.732 0.701,-0.641 0.821,-0.561C0.872,-0.527 0.922,-0.499 0.97,-0.477C0.953,-0.46 0.937,-0.439 0.921,-0.413C0.804,-0.474 0.698,-0.551 0.601,-0.646C0.559,-0.686 0.525,-0.725 0.498,-0.762C0.439,-0.674 0.354,-0.59 0.241,-0.507C0.188,-0.468 0.136,-0.435 0.083,-0.407C0.072,-0.427 0.057,-0.447 0.037,-0.466C0.154,-0.525 0.26,-0.605 0.354,-0.705C0.397,-0.75 0.431,-0.793 0.456,-0.834Z" style="fill:rgb(128,128,128);fill-rule:nonzero;"/>
                    </g>
                    <g transform="matrix(165.313,0,0,165.313,2253.98,744.801)">
                        <path d="M0.617,-0.05L0.617,-0.763L0.91,-0.763L0.91,-0.249C0.91,-0.215 0.901,-0.194 0.882,-0.185C0.881,-0.184 0.88,-0.183 0.879,-0.183C0.86,-0.175 0.82,-0.171 0.759,-0.171C0.752,-0.199 0.745,-0.22 0.736,-0.235C0.753,-0.235 0.783,-0.234 0.826,-0.234C0.835,-0.236 0.84,-0.241 0.841,-0.25L0.841,-0.698L0.684,-0.698L0.684,-0.05L0.617,-0.05ZM0.365,-0.238L0.365,-0.756L0.399,-0.746C0.474,-0.78 0.528,-0.81 0.562,-0.836L0.617,-0.781C0.574,-0.755 0.512,-0.727 0.432,-0.696L0.432,-0.256C0.443,-0.259 0.461,-0.264 0.484,-0.271C0.526,-0.282 0.557,-0.291 0.578,-0.296L0.587,-0.234C0.552,-0.223 0.499,-0.208 0.429,-0.188C0.375,-0.172 0.337,-0.16 0.314,-0.153L0.296,-0.221C0.303,-0.222 0.314,-0.225 0.328,-0.229C0.344,-0.233 0.357,-0.236 0.365,-0.238ZM0.307,-0.705L0.255,-0.654C0.225,-0.691 0.176,-0.729 0.109,-0.769C0.104,-0.772 0.098,-0.776 0.093,-0.778L0.142,-0.824C0.215,-0.785 0.268,-0.747 0.303,-0.71C0.304,-0.708 0.305,-0.706 0.307,-0.705ZM0.278,-0.51L0.227,-0.457C0.191,-0.494 0.14,-0.531 0.071,-0.567C0.065,-0.571 0.059,-0.574 0.054,-0.576L0.103,-0.624C0.17,-0.593 0.225,-0.559 0.268,-0.52C0.272,-0.516 0.276,-0.512 0.278,-0.51ZM0.253,-0.375L0.253,-0.125C0.299,-0.055 0.383,-0.017 0.505,-0.012C0.657,-0.008 0.803,-0.01 0.943,-0.018C0.95,-0.018 0.956,-0.018 0.961,-0.019C0.949,0.002 0.94,0.027 0.936,0.055C0.782,0.06 0.639,0.061 0.506,0.058C0.382,0.052 0.289,0.016 0.229,-0.051C0.226,-0.054 0.223,-0.057 0.221,-0.061C0.186,-0.027 0.138,0.015 0.076,0.067L0.037,-0.006C0.083,-0.038 0.131,-0.076 0.181,-0.12L0.181,-0.306L0.05,-0.306L0.05,-0.375L0.253,-0.375Z" style="fill:rgb(128,128,128);fill-rule:nonzero;"/>
                    </g>
                    <g transform="matrix(165.313,0,0,165.313,2419.29,744.801)">
                        <path d="M0.503,-0.732L0.503,-0.67L0.065,-0.67L0.065,-0.732L0.249,-0.732L0.249,-0.833L0.321,-0.833L0.321,-0.732L0.503,-0.732ZM0.388,-0.51L0.328,-0.523C0.354,-0.581 0.37,-0.629 0.378,-0.668L0.446,-0.652C0.42,-0.583 0.401,-0.536 0.388,-0.51ZM0.226,-0.524L0.164,-0.507C0.16,-0.551 0.146,-0.599 0.125,-0.651L0.183,-0.666C0.205,-0.618 0.219,-0.571 0.226,-0.524ZM0.479,-0.123L0.435,-0.068C0.413,-0.093 0.375,-0.13 0.321,-0.18L0.321,0.074L0.249,0.074L0.249,-0.189C0.197,-0.107 0.141,-0.043 0.082,0.004C0.067,-0.017 0.05,-0.035 0.032,-0.05C0.091,-0.088 0.148,-0.146 0.201,-0.224C0.213,-0.241 0.224,-0.258 0.233,-0.275L0.054,-0.275L0.054,-0.338L0.249,-0.338L0.249,-0.443L0.051,-0.443L0.051,-0.506L0.515,-0.506L0.515,-0.443L0.321,-0.443L0.321,-0.338L0.507,-0.338L0.507,-0.275L0.321,-0.275L0.321,-0.251C0.374,-0.212 0.425,-0.171 0.474,-0.127C0.476,-0.126 0.477,-0.124 0.479,-0.123ZM0.956,-0.502L0.956,-0.432L0.844,-0.432L0.844,0.07L0.771,0.07L0.771,-0.432L0.622,-0.432L0.622,-0.407C0.622,-0.205 0.577,-0.051 0.488,0.054C0.48,0.063 0.471,0.073 0.463,0.081C0.454,0.065 0.438,0.05 0.417,0.034C0.414,0.032 0.412,0.031 0.41,0.029C0.495,-0.054 0.542,-0.177 0.549,-0.339C0.55,-0.36 0.551,-0.383 0.551,-0.408L0.551,-0.756L0.605,-0.739C0.731,-0.767 0.824,-0.796 0.883,-0.825L0.943,-0.77C0.875,-0.739 0.768,-0.709 0.622,-0.68L0.622,-0.502L0.956,-0.502Z" style="fill:rgb(128,128,128);fill-rule:nonzero;"/>
                    </g>
                    <g transform="matrix(165.313,0,0,165.313,2584.6,744.801)">
                        <path d="M0.16,-0.683L0.16,-0.575L0.087,-0.575L0.087,-0.751L0.462,-0.751L0.462,-0.836L0.536,-0.836L0.536,-0.751L0.917,-0.751L0.917,-0.588L0.842,-0.588L0.842,-0.683L0.16,-0.683ZM0.27,-0.631L0.338,-0.609C0.312,-0.554 0.285,-0.505 0.256,-0.462L0.256,0.076L0.185,0.076L0.185,-0.366C0.145,-0.319 0.107,-0.281 0.072,-0.251C0.057,-0.276 0.042,-0.298 0.025,-0.316C0.111,-0.383 0.182,-0.468 0.24,-0.573C0.251,-0.593 0.261,-0.612 0.27,-0.631ZM0.809,-0.216L0.809,-0.33L0.464,-0.33L0.464,-0.216L0.809,-0.216ZM0.464,-0.025L0.809,-0.025L0.809,-0.154L0.464,-0.154L0.464,-0.025ZM0.922,-0.5L0.668,-0.5C0.662,-0.481 0.651,-0.446 0.634,-0.395L0.881,-0.395L0.881,0.075L0.809,0.075L0.809,0.04L0.464,0.04L0.464,0.078L0.394,0.078L0.394,-0.395L0.561,-0.395C0.572,-0.434 0.581,-0.469 0.586,-0.5L0.346,-0.5L0.346,-0.567L0.922,-0.567L0.922,-0.5Z" style="fill:rgb(128,128,128);fill-rule:nonzero;"/>
                    </g>
                    <g transform="matrix(165.313,0,0,165.313,2749.92,744.801)">
                        <path d="M0.864,-0.791L0.927,-0.767C0.893,-0.726 0.86,-0.692 0.829,-0.663L0.782,-0.684C0.813,-0.717 0.841,-0.753 0.864,-0.791ZM0.533,-0.65L0.485,-0.68C0.522,-0.705 0.55,-0.742 0.569,-0.791L0.619,-0.772C0.597,-0.718 0.568,-0.677 0.533,-0.65ZM0.426,-0.789L0.487,-0.765C0.455,-0.724 0.426,-0.691 0.398,-0.666L0.354,-0.686C0.386,-0.725 0.41,-0.76 0.426,-0.789ZM0.152,-0.792L0.202,-0.774C0.181,-0.716 0.153,-0.674 0.118,-0.65L0.071,-0.679C0.109,-0.704 0.136,-0.742 0.152,-0.792ZM0.456,-0.576L0.411,-0.529C0.384,-0.551 0.338,-0.583 0.273,-0.623C0.238,-0.576 0.175,-0.54 0.085,-0.517C0.079,-0.534 0.068,-0.55 0.052,-0.566C0.05,-0.568 0.049,-0.57 0.048,-0.57C0.135,-0.59 0.193,-0.622 0.223,-0.666C0.246,-0.702 0.26,-0.759 0.265,-0.837L0.33,-0.837C0.326,-0.768 0.316,-0.714 0.302,-0.675C0.375,-0.631 0.427,-0.598 0.456,-0.576ZM0.78,-0.007L0.78,-0.098L0.238,-0.098L0.238,-0.007L0.78,-0.007ZM0.303,-0.343L0.303,-0.265L0.698,-0.265L0.698,-0.343L0.303,-0.343ZM0.771,-0.214L0.538,-0.214C0.535,-0.207 0.527,-0.187 0.513,-0.153L0.854,-0.153L0.854,0.075L0.78,0.075L0.78,0.049L0.238,0.049L0.238,0.076L0.168,0.076L0.168,-0.153L0.441,-0.153C0.446,-0.169 0.451,-0.189 0.458,-0.214L0.233,-0.214L0.233,-0.394L0.771,-0.394L0.771,-0.214ZM0.928,-0.561L0.89,-0.516L0.916,-0.516L0.916,-0.335L0.843,-0.335L0.843,-0.456L0.158,-0.456L0.158,-0.335L0.086,-0.335L0.086,-0.516L0.874,-0.516C0.832,-0.546 0.771,-0.583 0.693,-0.626C0.656,-0.579 0.595,-0.545 0.51,-0.522C0.502,-0.542 0.49,-0.561 0.473,-0.578C0.559,-0.598 0.616,-0.631 0.645,-0.677C0.666,-0.711 0.679,-0.765 0.684,-0.837L0.753,-0.837C0.749,-0.774 0.739,-0.721 0.723,-0.679C0.808,-0.636 0.876,-0.597 0.928,-0.561Z" style="fill:rgb(128,128,128);fill-rule:nonzero;"/>
                    </g>
                </g>
            </g>
        </g>
        <g transform="matrix(0.127041,0,0,0.127041,-2.78046,11.9087)">
            <g id="LOGO2" serif:id="LOGO" transform="matrix(0.460612,0,0,0.460612,-3.87845,902.055)">
                <g id="outer-ring2" serif:id="outer ring" transform="matrix(0.975,0,0,0.975,16.936,12.7749)">
                    <g id="y4" serif:id="y" transform="matrix(1.57233,0,0,1.82815,-211.572,-384.132)">
                        <path d="M587.204,248.633C552.217,237.63 515.253,232 478,232C302.491,232 160,354.551 160,505.5C160,656.449 302.491,779 478,779C611.514,779 730.811,707.27 776.661,599.422L717.939,580.956C681.104,667.598 585.263,725.225 478,725.225C336.999,725.225 222.525,626.769 222.525,505.5C222.525,384.231 336.999,285.775 478,285.775C507.928,285.775 537.624,290.298 565.733,299.138L587.204,248.633Z" style="fill:rgb(254,196,81);"/>
                    </g>
                    <g id="o4" serif:id="o" transform="matrix(1.57233,0,0,1.82815,-211.572,-384.132)">
                        <path d="M478,232C302.373,232 160,354.45 160,505.5C160,656.449 302.491,779 478,779C611.514,779 730.811,707.27 776.661,599.422L717.939,580.956C681.104,667.598 585.263,725.225 478,725.225C336.999,725.225 222.525,626.769 222.525,505.5C222.525,384.149 336.905,285.775 478,285.775L478,232Z" style="fill:rgb(246,164,87);"/>
                    </g>
                    <g id="bl2" serif:id="bl" transform="matrix(1.57233,0,0,1.82815,-211.572,-384.132)">
                        <path d="M368.796,248.633C243.401,288.067 160,390.669 160,505.5C160,656.449 302.491,779 478,779C611.514,779 730.811,707.27 776.661,599.422L717.939,580.956C681.104,667.598 585.263,725.225 478,725.225C336.999,725.225 222.525,626.769 222.525,505.5C222.525,413.247 289.528,330.818 390.267,299.138L368.796,248.633Z" style="fill:rgb(65,133,244);"/>
                    </g>
                    <g id="bk2" serif:id="bk" transform="matrix(1.57233,0,0,1.82815,-211.572,-384.132)">
                        <path d="M179.339,411.578C166.546,441.669 160,473.46 160,505.5C160,656.449 302.491,779 478,779C611.514,779 730.811,707.27 776.661,599.422L717.939,580.956C681.104,667.598 585.263,725.225 478,725.225C336.999,725.225 222.525,626.769 222.525,505.5C222.525,479.76 227.784,454.219 238.061,430.044L179.339,411.578Z"/>
                    </g>
                </g>
                <g id="inner-ring2" serif:id="inner ring">
                    <g id="b2" serif:id="b" transform="matrix(1.17767,0,0,1.36929,-22.9277,-152.175)">
                        <path d="M368.796,248.633C243.401,288.067 160,390.669 160,505.5C160,656.449 302.491,779 478,779C611.514,779 730.811,707.27 776.661,599.422L770.688,597.544C725.755,703.234 608.844,773.53 478,773.53C306.001,773.53 166.36,653.43 166.36,505.5C166.36,392.966 248.093,292.415 370.98,253.77L368.796,248.633Z" style="fill:rgb(65,133,244);"/>
                    </g>
                    <g id="o5" serif:id="o" transform="matrix(1.10377,0,0,1.28336,14.4922,-109.465)">
                        <path d="M478,232C302.373,232 160,354.45 160,505.5C160,656.449 302.491,779 478,779C634.708,779 768.056,680.812 792.202,547.643L785.918,546.8C762.255,677.306 631.574,773.53 478,773.53C306.001,773.53 166.36,653.43 166.36,505.5C166.36,357.471 305.886,237.47 478,237.47L478,232Z" style="fill:rgb(246,164,87);"/>
                    </g>
                    <g id="y5" serif:id="y" transform="matrix(1.02201,0,0,1.1883,51.478,-60.6856)">
                        <path d="M587.204,248.633C552.217,237.63 515.253,232 478,232C302.491,232 160,354.551 160,505.5C160,656.449 302.491,779 478,779C653.627,779 796,656.55 796,505.5L789.64,505.5C789.64,653.529 650.114,773.53 478,773.53C306.001,773.53 166.36,653.43 166.36,505.5C166.36,357.57 306.001,237.47 478,237.47C514.508,237.47 550.732,242.987 585.02,253.77L587.204,248.633Z" style="fill:rgb(254,196,81);"/>
                    </g>
                </g>
            </g>
            <g transform="matrix(1,0,0,1,-32.1136,960.089)">
                <g transform="matrix(0.841579,0,0,0.841579,224,-408.469)">
                    <g transform="matrix(165.313,0,0,165.313,362.561,744.801)">
                        <path d="M0.635,0L0.028,0L0.215,-0.194C0.264,-0.245 0.303,-0.289 0.331,-0.325C0.359,-0.36 0.38,-0.39 0.394,-0.415C0.407,-0.44 0.416,-0.46 0.419,-0.475C0.422,-0.49 0.424,-0.503 0.424,-0.514C0.424,-0.525 0.422,-0.536 0.419,-0.547C0.415,-0.558 0.409,-0.567 0.402,-0.576C0.395,-0.584 0.386,-0.591 0.376,-0.596C0.365,-0.6 0.353,-0.603 0.339,-0.603C0.312,-0.603 0.292,-0.594 0.277,-0.577C0.262,-0.56 0.254,-0.538 0.254,-0.512C0.254,-0.505 0.255,-0.494 0.257,-0.48L0.043,-0.48C0.043,-0.524 0.05,-0.564 0.065,-0.6C0.079,-0.636 0.099,-0.667 0.125,-0.693C0.151,-0.719 0.182,-0.739 0.218,-0.753C0.253,-0.767 0.292,-0.774 0.335,-0.774C0.377,-0.774 0.416,-0.767 0.452,-0.754C0.487,-0.741 0.518,-0.722 0.544,-0.698C0.57,-0.674 0.59,-0.646 0.605,-0.613C0.62,-0.58 0.627,-0.544 0.627,-0.505C0.627,-0.464 0.618,-0.426 0.601,-0.391C0.583,-0.356 0.555,-0.32 0.516,-0.283L0.391,-0.166L0.635,-0.166L0.635,0Z" style="fill:white;fill-rule:nonzero;"/>
                    </g>
                    <g transform="matrix(165.313,0,0,165.313,474.974,744.801)">
                        <path d="M0.214,-0.378C0.214,-0.345 0.217,-0.314 0.223,-0.287C0.229,-0.26 0.238,-0.236 0.249,-0.216C0.26,-0.196 0.273,-0.181 0.288,-0.17C0.303,-0.159 0.321,-0.153 0.34,-0.153C0.359,-0.153 0.376,-0.159 0.392,-0.17C0.407,-0.181 0.42,-0.196 0.431,-0.216C0.442,-0.236 0.45,-0.26 0.456,-0.287C0.462,-0.314 0.465,-0.345 0.465,-0.378C0.465,-0.411 0.462,-0.441 0.456,-0.469C0.45,-0.496 0.442,-0.52 0.431,-0.54C0.42,-0.559 0.407,-0.575 0.392,-0.586C0.376,-0.596 0.359,-0.602 0.34,-0.602C0.321,-0.602 0.303,-0.596 0.288,-0.586C0.273,-0.575 0.26,-0.559 0.249,-0.54C0.238,-0.52 0.229,-0.496 0.223,-0.469C0.217,-0.441 0.214,-0.411 0.214,-0.378ZM0.02,-0.378C0.02,-0.438 0.028,-0.493 0.044,-0.542C0.059,-0.591 0.081,-0.632 0.11,-0.667C0.138,-0.702 0.171,-0.729 0.211,-0.748C0.25,-0.767 0.293,-0.776 0.34,-0.776C0.387,-0.776 0.43,-0.767 0.469,-0.748C0.508,-0.729 0.542,-0.702 0.57,-0.667C0.598,-0.632 0.62,-0.591 0.636,-0.542C0.651,-0.493 0.659,-0.438 0.659,-0.378C0.659,-0.318 0.651,-0.264 0.636,-0.215C0.62,-0.166 0.598,-0.124 0.57,-0.089C0.542,-0.054 0.508,-0.027 0.469,-0.008C0.43,0.012 0.387,0.021 0.34,0.021C0.293,0.021 0.25,0.012 0.211,-0.008C0.171,-0.027 0.138,-0.054 0.11,-0.089C0.081,-0.124 0.059,-0.166 0.044,-0.215C0.028,-0.264 0.02,-0.318 0.02,-0.378Z" style="fill:white;fill-rule:nonzero;"/>
                    </g>
                    <g transform="matrix(165.313,0,0,165.313,587.387,744.801)">
                        <path d="M0.635,0L0.028,0L0.215,-0.194C0.264,-0.245 0.303,-0.289 0.331,-0.325C0.359,-0.36 0.38,-0.39 0.394,-0.415C0.407,-0.44 0.416,-0.46 0.419,-0.475C0.422,-0.49 0.424,-0.503 0.424,-0.514C0.424,-0.525 0.422,-0.536 0.419,-0.547C0.415,-0.558 0.409,-0.567 0.402,-0.576C0.395,-0.584 0.386,-0.591 0.376,-0.596C0.365,-0.6 0.353,-0.603 0.339,-0.603C0.312,-0.603 0.292,-0.594 0.277,-0.577C0.262,-0.56 0.254,-0.538 0.254,-0.512C0.254,-0.505 0.255,-0.494 0.257,-0.48L0.043,-0.48C0.043,-0.524 0.05,-0.564 0.065,-0.6C0.079,-0.636 0.099,-0.667 0.125,-0.693C0.151,-0.719 0.182,-0.739 0.218,-0.753C0.253,-0.767 0.292,-0.774 0.335,-0.774C0.377,-0.774 0.416,-0.767 0.452,-0.754C0.487,-0.741 0.518,-0.722 0.544,-0.698C0.57,-0.674 0.59,-0.646 0.605,-0.613C0.62,-0.58 0.627,-0.544 0.627,-0.505C0.627,-0.464 0.618,-0.426 0.601,-0.391C0.583,-0.356 0.555,-0.32 0.516,-0.283L0.391,-0.166L0.635,-0.166L0.635,0Z" style="fill:white;fill-rule:nonzero;"/>
                    </g>
                    <g transform="matrix(165.313,0,0,165.313,699.8,744.801)">
                        <path d="M0.214,-0.378C0.214,-0.345 0.217,-0.314 0.223,-0.287C0.229,-0.26 0.238,-0.236 0.249,-0.216C0.26,-0.196 0.273,-0.181 0.288,-0.17C0.303,-0.159 0.321,-0.153 0.34,-0.153C0.359,-0.153 0.376,-0.159 0.392,-0.17C0.407,-0.181 0.42,-0.196 0.431,-0.216C0.442,-0.236 0.45,-0.26 0.456,-0.287C0.462,-0.314 0.465,-0.345 0.465,-0.378C0.465,-0.411 0.462,-0.441 0.456,-0.469C0.45,-0.496 0.442,-0.52 0.431,-0.54C0.42,-0.559 0.407,-0.575 0.392,-0.586C0.376,-0.596 0.359,-0.602 0.34,-0.602C0.321,-0.602 0.303,-0.596 0.288,-0.586C0.273,-0.575 0.26,-0.559 0.249,-0.54C0.238,-0.52 0.229,-0.496 0.223,-0.469C0.217,-0.441 0.214,-0.411 0.214,-0.378ZM0.02,-0.378C0.02,-0.438 0.028,-0.493 0.044,-0.542C0.059,-0.591 0.081,-0.632 0.11,-0.667C0.138,-0.702 0.171,-0.729 0.211,-0.748C0.25,-0.767 0.293,-0.776 0.34,-0.776C0.387,-0.776 0.43,-0.767 0.469,-0.748C0.508,-0.729 0.542,-0.702 0.57,-0.667C0.598,-0.632 0.62,-0.591 0.636,-0.542C0.651,-0.493 0.659,-0.438 0.659,-0.378C0.659,-0.318 0.651,-0.264 0.636,-0.215C0.62,-0.166 0.598,-0.124 0.57,-0.089C0.542,-0.054 0.508,-0.027 0.469,-0.008C0.43,0.012 0.387,0.021 0.34,0.021C0.293,0.021 0.25,0.012 0.211,-0.008C0.171,-0.027 0.138,-0.054 0.11,-0.089C0.081,-0.124 0.059,-0.166 0.044,-0.215C0.028,-0.264 0.02,-0.318 0.02,-0.378Z" style="fill:white;fill-rule:nonzero;"/>
                    </g>
                    <g transform="matrix(165.313,0,0,165.313,868.419,744.801)">
                        <path d="M0.622,-0.502C0.577,-0.557 0.521,-0.585 0.454,-0.585C0.425,-0.585 0.398,-0.58 0.373,-0.569C0.347,-0.558 0.326,-0.544 0.308,-0.526C0.29,-0.507 0.276,-0.485 0.266,-0.46C0.255,-0.435 0.25,-0.407 0.25,-0.378C0.25,-0.348 0.255,-0.32 0.266,-0.295C0.276,-0.27 0.29,-0.248 0.309,-0.229C0.327,-0.21 0.348,-0.196 0.373,-0.185C0.398,-0.174 0.424,-0.169 0.453,-0.169C0.516,-0.169 0.572,-0.196 0.622,-0.249L0.622,-0.017L0.602,-0.01C0.572,0.001 0.544,0.009 0.518,0.014C0.492,0.019 0.466,0.021 0.441,0.021C0.389,0.021 0.339,0.011 0.292,-0.009C0.244,-0.028 0.202,-0.056 0.166,-0.092C0.129,-0.127 0.1,-0.169 0.078,-0.219C0.056,-0.268 0.045,-0.321 0.045,-0.379C0.045,-0.437 0.056,-0.49 0.078,-0.539C0.099,-0.587 0.128,-0.628 0.165,-0.664C0.201,-0.699 0.243,-0.726 0.291,-0.746C0.339,-0.765 0.389,-0.775 0.442,-0.775C0.472,-0.775 0.501,-0.772 0.531,-0.766C0.56,-0.759 0.59,-0.749 0.622,-0.736L0.622,-0.502Z" style="fill:white;fill-rule:nonzero;"/>
                    </g>
                    <g transform="matrix(165.313,0,0,165.313,978.683,744.801)">
                        <path d="M0.275,-0.754L0.275,-0.166L0.51,-0.166L0.51,0L0.079,0L0.079,-0.754L0.275,-0.754Z" style="fill:white;fill-rule:nonzero;"/>
                    </g>
                    <g transform="matrix(165.313,0,0,165.313,1066.63,744.801)">
                        <rect x="0.079" y="-0.754" width="0.196" height="0.754" style="fill:white;fill-rule:nonzero;"/>
                    </g>
                    <g transform="matrix(165.313,0,0,165.313,1125.15,744.801)">
                        <path d="M0.045,0L0.173,-0.754L0.367,-0.754L0.518,-0.352L0.668,-0.754L0.862,-0.754L0.99,0L0.795,0L0.73,-0.434L0.552,0L0.474,0L0.305,-0.434L0.24,0L0.045,0Z" style="fill:white;fill-rule:nonzero;"/>
                    </g>
                    <g transform="matrix(165.313,0,0,165.313,1296.25,744.801)">
                        <path d="M0.489,-0.28L0.401,-0.531L0.313,-0.28L0.489,-0.28ZM0.541,-0.131L0.261,-0.131L0.216,0L0.007,0L0.294,-0.754L0.508,-0.754L0.795,0L0.586,0L0.541,-0.131Z" style="fill:white;fill-rule:nonzero;"/>
                    </g>
                    <g transform="matrix(165.313,0,0,165.313,1428.83,744.801)">
                        <path d="M0.493,-0.561C0.472,-0.578 0.45,-0.591 0.429,-0.6C0.408,-0.608 0.387,-0.612 0.367,-0.612C0.342,-0.612 0.321,-0.606 0.305,-0.594C0.289,-0.582 0.281,-0.566 0.281,-0.547C0.281,-0.534 0.285,-0.523 0.293,-0.514C0.301,-0.505 0.312,-0.498 0.325,-0.492C0.338,-0.485 0.352,-0.48 0.369,-0.475C0.385,-0.47 0.401,-0.465 0.417,-0.46C0.481,-0.439 0.528,-0.41 0.558,-0.375C0.587,-0.339 0.602,-0.292 0.602,-0.235C0.602,-0.196 0.596,-0.161 0.583,-0.13C0.57,-0.099 0.551,-0.072 0.526,-0.05C0.501,-0.027 0.47,-0.01 0.434,0.003C0.397,0.015 0.356,0.021 0.31,0.021C0.215,0.021 0.126,-0.007 0.045,-0.064L0.129,-0.222C0.158,-0.196 0.187,-0.177 0.216,-0.164C0.245,-0.151 0.273,-0.145 0.301,-0.145C0.333,-0.145 0.357,-0.152 0.373,-0.167C0.388,-0.182 0.396,-0.198 0.396,-0.217C0.396,-0.228 0.394,-0.238 0.39,-0.247C0.386,-0.255 0.379,-0.263 0.37,-0.27C0.361,-0.277 0.349,-0.283 0.334,-0.289C0.319,-0.295 0.3,-0.302 0.279,-0.309C0.254,-0.317 0.229,-0.326 0.205,-0.336C0.18,-0.345 0.159,-0.358 0.14,-0.374C0.121,-0.39 0.105,-0.41 0.094,-0.435C0.082,-0.459 0.076,-0.49 0.076,-0.527C0.076,-0.564 0.082,-0.598 0.095,-0.629C0.107,-0.659 0.124,-0.685 0.147,-0.707C0.169,-0.728 0.196,-0.745 0.229,-0.757C0.261,-0.769 0.297,-0.775 0.337,-0.775C0.374,-0.775 0.413,-0.77 0.454,-0.76C0.495,-0.749 0.534,-0.734 0.571,-0.714L0.493,-0.561Z" style="fill:white;fill-rule:nonzero;"/>
                    </g>
                </g>
                <g transform="matrix(0.262379,0,0,0.262379,591.718,75.3119)">
                    <g transform="matrix(165.313,0,0,165.313,362.561,744.801)">
                        <path d="M0.738,-0.277L0.259,-0.277L0.259,-0.039L0.738,-0.039L0.738,-0.277ZM0.184,0.076L0.184,-0.347L0.817,-0.347L0.817,0.074L0.738,0.074L0.738,0.032L0.259,0.032L0.259,0.076L0.184,0.076ZM0.622,-0.68L0.68,-0.722C0.775,-0.646 0.852,-0.571 0.912,-0.496C0.928,-0.477 0.94,-0.459 0.95,-0.443L0.886,-0.394C0.869,-0.422 0.845,-0.454 0.815,-0.49C0.728,-0.486 0.48,-0.475 0.072,-0.457L0.067,-0.531C0.091,-0.532 0.141,-0.534 0.217,-0.536C0.286,-0.641 0.341,-0.742 0.383,-0.84L0.465,-0.812C0.415,-0.716 0.361,-0.625 0.303,-0.54C0.402,-0.543 0.551,-0.549 0.752,-0.559C0.708,-0.604 0.665,-0.644 0.622,-0.68Z" style="fill:white;fill-rule:nonzero;"/>
                    </g>
                    <g transform="matrix(165.313,0,0,165.313,527.874,744.801)">
                        <path d="M0.939,-0.475L0.562,-0.475C0.625,-0.278 0.724,-0.135 0.859,-0.046C0.89,-0.026 0.922,-0.009 0.955,0.005C0.932,0.026 0.914,0.05 0.899,0.075C0.719,-0.011 0.586,-0.176 0.501,-0.42C0.442,-0.185 0.309,-0.02 0.102,0.075C0.087,0.05 0.069,0.03 0.046,0.014C0.254,-0.078 0.384,-0.241 0.435,-0.475L0.066,-0.475L0.066,-0.551L0.447,-0.551C0.456,-0.61 0.461,-0.704 0.462,-0.832L0.462,-0.835L0.542,-0.835C0.541,-0.715 0.535,-0.62 0.526,-0.551L0.939,-0.551L0.939,-0.475Z" style="fill:white;fill-rule:nonzero;"/>
                    </g>
                    <g transform="matrix(165.313,0,0,165.313,730.157,744.801)">
                        <path d="M0.536,-0.321L0.823,-0.321L0.823,-0.586L0.536,-0.586L0.536,-0.321ZM0.173,-0.321L0.459,-0.321L0.459,-0.586L0.173,-0.586L0.173,-0.321ZM0.536,-0.659L0.899,-0.659L0.899,-0.191L0.823,-0.191L0.823,-0.248L0.536,-0.248L0.536,0.076L0.459,0.076L0.459,-0.248L0.173,-0.248L0.173,-0.186L0.1,-0.186L0.1,-0.659L0.459,-0.659L0.459,-0.837L0.536,-0.837L0.536,-0.659Z" style="fill:white;fill-rule:nonzero;"/>
                    </g>
                    <g transform="matrix(165.313,0,0,165.313,895.47,744.801)">
                        <path d="M0.711,-0.595L0.283,-0.595C0.334,-0.457 0.406,-0.341 0.498,-0.246C0.589,-0.339 0.66,-0.455 0.711,-0.595ZM0.951,-0.595L0.797,-0.595C0.739,-0.433 0.658,-0.3 0.555,-0.194C0.669,-0.099 0.804,-0.033 0.961,0.004C0.94,0.024 0.923,0.048 0.908,0.076C0.745,0.034 0.608,-0.037 0.495,-0.138C0.388,-0.047 0.253,0.024 0.089,0.077C0.08,0.056 0.066,0.034 0.045,0.01C0.044,0.008 0.043,0.007 0.042,0.006C0.202,-0.04 0.335,-0.106 0.439,-0.192C0.337,-0.302 0.258,-0.436 0.201,-0.595L0.054,-0.595L0.054,-0.668L0.461,-0.668L0.461,-0.837L0.536,-0.837L0.536,-0.668L0.951,-0.668L0.951,-0.595Z" style="fill:white;fill-rule:nonzero;"/>
                    </g>
                    <g transform="matrix(165.313,0,0,165.313,1060.78,744.801)">
                        <path d="M0.015,0L0.194,-0.283L0.029,-0.543L0.127,-0.543L0.2,-0.423C0.207,-0.411 0.217,-0.394 0.231,-0.371C0.242,-0.354 0.249,-0.341 0.254,-0.333L0.258,-0.333C0.286,-0.384 0.302,-0.414 0.307,-0.423L0.374,-0.543L0.469,-0.543L0.304,-0.274L0.483,0L0.383,0L0.303,-0.127C0.292,-0.147 0.272,-0.179 0.245,-0.224L0.24,-0.224C0.21,-0.174 0.191,-0.141 0.184,-0.127L0.111,0L0.015,0Z" style="fill:white;fill-rule:nonzero;"/>
                    </g>
                    <g transform="matrix(165.313,0,0,165.313,1142.96,744.801)">
                        <path d="M0.592,-0.708L0.486,-0.708C0.46,-0.675 0.43,-0.646 0.397,-0.621C0.381,-0.637 0.362,-0.65 0.341,-0.658C0.41,-0.706 0.46,-0.766 0.492,-0.837L0.559,-0.826C0.55,-0.807 0.539,-0.786 0.525,-0.764L0.867,-0.764L0.879,-0.767L0.929,-0.752C0.893,-0.689 0.86,-0.642 0.829,-0.61L0.769,-0.631C0.791,-0.652 0.812,-0.677 0.83,-0.708L0.67,-0.708C0.687,-0.649 0.725,-0.605 0.785,-0.576C0.828,-0.555 0.884,-0.539 0.953,-0.528C0.938,-0.512 0.925,-0.492 0.915,-0.468C0.776,-0.493 0.685,-0.545 0.64,-0.625C0.638,-0.628 0.636,-0.631 0.635,-0.634C0.603,-0.574 0.542,-0.53 0.453,-0.503C0.43,-0.496 0.406,-0.491 0.38,-0.485C0.373,-0.502 0.362,-0.519 0.345,-0.538C0.45,-0.557 0.521,-0.589 0.557,-0.635C0.572,-0.655 0.584,-0.679 0.592,-0.708ZM0.255,-0.202L0.255,-0.132L0.756,-0.132L0.756,-0.202L0.255,-0.202ZM0.255,-0.319L0.255,-0.25L0.756,-0.25L0.756,-0.319L0.255,-0.319ZM0.255,-0.434L0.255,-0.367L0.756,-0.367L0.756,-0.434L0.255,-0.434ZM0.183,-0.083L0.183,-0.484L0.83,-0.484L0.83,-0.083L0.183,-0.083ZM0.337,-0.765L0.337,-0.705L0.078,-0.705L0.078,-0.765L0.337,-0.765ZM0.343,-0.62L0.35,-0.566C0.328,-0.56 0.235,-0.534 0.069,-0.487L0.044,-0.548C0.07,-0.554 0.17,-0.578 0.343,-0.62ZM0.35,-0.073L0.417,-0.041C0.338,0.005 0.236,0.045 0.112,0.079C0.084,0.049 0.066,0.031 0.057,0.023C0.186,-0.004 0.283,-0.036 0.35,-0.073ZM0.583,-0.032L0.644,-0.07C0.773,-0.029 0.873,0.008 0.944,0.041L0.862,0.078C0.799,0.046 0.706,0.009 0.583,-0.032Z" style="fill:white;fill-rule:nonzero;"/>
                    </g>
                    <g transform="matrix(165.313,0,0,165.313,1308.27,744.801)">
                        <path d="M0.768,-0.112L0.299,-0.112L0.299,-0.015L0.768,-0.015L0.768,-0.112ZM0.704,-0.38L0.299,-0.38L0.299,-0.295L0.704,-0.295L0.704,-0.38ZM0.299,-0.238L0.299,-0.17L0.841,-0.17L0.841,0.075L0.768,0.075L0.768,0.043L0.299,0.043L0.299,0.077L0.229,0.077L0.229,-0.437L0.777,-0.437L0.777,-0.238L0.299,-0.238ZM0.954,-0.761L0.954,-0.699L0.735,-0.699C0.761,-0.667 0.779,-0.64 0.789,-0.617L0.721,-0.594C0.71,-0.622 0.688,-0.658 0.654,-0.699L0.574,-0.699C0.56,-0.68 0.541,-0.659 0.518,-0.636L0.533,-0.636L0.533,-0.558L0.922,-0.558L0.922,-0.371L0.85,-0.371L0.85,-0.499L0.155,-0.499L0.155,-0.371L0.085,-0.371L0.085,-0.558L0.462,-0.558L0.462,-0.621C0.448,-0.63 0.435,-0.637 0.421,-0.644C0.445,-0.66 0.466,-0.679 0.483,-0.699L0.305,-0.699C0.325,-0.663 0.338,-0.636 0.344,-0.617L0.278,-0.597C0.272,-0.618 0.257,-0.652 0.231,-0.699L0.188,-0.699C0.162,-0.66 0.133,-0.625 0.102,-0.593C0.079,-0.61 0.059,-0.624 0.041,-0.633C0.1,-0.684 0.146,-0.75 0.18,-0.829C0.182,-0.833 0.183,-0.837 0.185,-0.841L0.254,-0.823C0.247,-0.804 0.237,-0.784 0.225,-0.761L0.487,-0.761L0.487,-0.703C0.527,-0.747 0.556,-0.793 0.575,-0.841L0.646,-0.824C0.637,-0.8 0.626,-0.779 0.615,-0.761L0.954,-0.761Z" style="fill:white;fill-rule:nonzero;"/>
                    </g>
                    <g transform="matrix(165.313,0,0,165.313,1473.58,744.801)">
                        <path d="M0.015,0L0.194,-0.283L0.029,-0.543L0.127,-0.543L0.2,-0.423C0.207,-0.411 0.217,-0.394 0.231,-0.371C0.242,-0.354 0.249,-0.341 0.254,-0.333L0.258,-0.333C0.286,-0.384 0.302,-0.414 0.307,-0.423L0.374,-0.543L0.469,-0.543L0.304,-0.274L0.483,0L0.383,0L0.303,-0.127C0.292,-0.147 0.272,-0.179 0.245,-0.224L0.24,-0.224C0.21,-0.174 0.191,-0.141 0.184,-0.127L0.111,0L0.015,0Z" style="fill:white;fill-rule:nonzero;"/>
                    </g>
                    <g transform="matrix(165.313,0,0,165.313,1555.75,744.801)">
                        <path d="M0.939,-0.475L0.562,-0.475C0.625,-0.278 0.724,-0.135 0.859,-0.046C0.89,-0.026 0.922,-0.009 0.955,0.005C0.932,0.026 0.914,0.05 0.899,0.075C0.719,-0.011 0.586,-0.176 0.501,-0.42C0.442,-0.185 0.309,-0.02 0.102,0.075C0.087,0.05 0.069,0.03 0.046,0.014C0.254,-0.078 0.384,-0.241 0.435,-0.475L0.066,-0.475L0.066,-0.551L0.447,-0.551C0.456,-0.61 0.461,-0.704 0.462,-0.832L0.462,-0.835L0.542,-0.835C0.541,-0.715 0.535,-0.62 0.526,-0.551L0.939,-0.551L0.939,-0.475Z" style="fill:white;fill-rule:nonzero;"/>
                    </g>
                    <g transform="matrix(165.313,0,0,165.313,1721.07,744.801)">
                        <path d="M0.918,-0.686L0.274,-0.686C0.227,-0.609 0.173,-0.543 0.112,-0.488C0.101,-0.498 0.077,-0.514 0.043,-0.536C0.126,-0.599 0.192,-0.683 0.241,-0.786C0.25,-0.804 0.257,-0.821 0.264,-0.838L0.341,-0.818C0.333,-0.799 0.322,-0.774 0.307,-0.745L0.918,-0.745L0.918,-0.686ZM0.843,-0.566L0.249,-0.566L0.249,-0.622L0.843,-0.622L0.843,-0.566ZM0.421,-0.42L0.421,-0.245L0.682,-0.245L0.682,-0.185L0.421,-0.185L0.421,-0.174L0.423,-0.176C0.526,-0.12 0.606,-0.067 0.665,-0.019C0.667,-0.017 0.669,-0.015 0.671,-0.014L0.622,0.033C0.577,-0.008 0.51,-0.056 0.421,-0.109L0.421,0.075L0.35,0.075L0.35,-0.152C0.291,-0.077 0.22,-0.014 0.138,0.036C0.126,0.043 0.115,0.05 0.104,0.056C0.089,0.034 0.073,0.016 0.057,0.002C0.131,-0.031 0.2,-0.079 0.264,-0.144C0.277,-0.158 0.289,-0.172 0.3,-0.185L0.083,-0.185L0.083,-0.245L0.35,-0.245L0.35,-0.42L0.421,-0.42ZM0.151,-0.378L0.207,-0.403C0.247,-0.356 0.274,-0.314 0.286,-0.277L0.228,-0.251C0.215,-0.291 0.189,-0.334 0.151,-0.378ZM0.566,-0.408L0.631,-0.383C0.585,-0.322 0.549,-0.277 0.523,-0.25L0.475,-0.272C0.512,-0.318 0.542,-0.363 0.566,-0.408ZM0.147,-0.5L0.786,-0.5C0.791,-0.165 0.824,0.002 0.883,0.003C0.899,0.002 0.908,-0.046 0.91,-0.14C0.927,-0.12 0.944,-0.106 0.96,-0.097C0.956,-0.013 0.944,0.038 0.924,0.059C0.912,0.07 0.897,0.075 0.878,0.075C0.812,0.075 0.767,0.014 0.743,-0.108C0.728,-0.183 0.718,-0.294 0.714,-0.441L0.147,-0.441L0.147,-0.5Z" style="fill:white;fill-rule:nonzero;"/>
                    </g>
                    <g transform="matrix(165.313,0,0,165.313,1923.35,744.801)">
                        <path d="M0.28,-0.586L0.28,-0.727L0.166,-0.727L0.166,-0.586L0.28,-0.586ZM0.166,-0.16L0.28,-0.183L0.28,-0.319L0.166,-0.319L0.166,-0.16ZM0.166,-0.523L0.166,-0.381L0.28,-0.381L0.28,-0.523L0.166,-0.523ZM0.4,-0.727L0.344,-0.727L0.344,0.076L0.28,0.076L0.28,-0.117C0.185,-0.096 0.109,-0.079 0.052,-0.068L0.039,-0.137C0.046,-0.138 0.055,-0.14 0.068,-0.143C0.083,-0.145 0.094,-0.147 0.102,-0.148L0.102,-0.727L0.05,-0.727L0.05,-0.794L0.4,-0.794L0.4,-0.727ZM0.561,-0.204L0.561,-0.362L0.622,-0.362L0.622,-0.203C0.622,-0.118 0.605,-0.054 0.572,-0.009C0.546,0.026 0.51,0.055 0.463,0.078C0.454,0.061 0.442,0.045 0.425,0.029C0.492,-0.005 0.534,-0.052 0.551,-0.111L0.471,-0.111L0.471,-0.066L0.413,-0.066L0.413,-0.326L0.471,-0.326L0.471,-0.166L0.56,-0.166C0.56,-0.175 0.561,-0.188 0.561,-0.204ZM0.561,-0.516L0.608,-0.532C0.641,-0.48 0.662,-0.432 0.671,-0.389L0.622,-0.37C0.619,-0.383 0.617,-0.395 0.613,-0.405C0.581,-0.403 0.534,-0.398 0.472,-0.393C0.433,-0.389 0.404,-0.386 0.387,-0.385L0.379,-0.441L0.436,-0.445C0.457,-0.475 0.479,-0.51 0.502,-0.549C0.473,-0.59 0.437,-0.629 0.394,-0.667L0.428,-0.709C0.438,-0.701 0.446,-0.695 0.452,-0.689C0.478,-0.736 0.5,-0.785 0.518,-0.836L0.58,-0.815C0.574,-0.805 0.565,-0.788 0.553,-0.766C0.523,-0.712 0.502,-0.675 0.488,-0.655C0.508,-0.635 0.523,-0.618 0.533,-0.605C0.55,-0.637 0.568,-0.674 0.587,-0.716L0.645,-0.695C0.587,-0.59 0.537,-0.508 0.496,-0.449L0.592,-0.457C0.583,-0.476 0.573,-0.495 0.561,-0.516ZM0.963,-0.381L0.912,-0.362C0.908,-0.382 0.903,-0.397 0.898,-0.408C0.775,-0.396 0.702,-0.389 0.681,-0.387L0.671,-0.443L0.717,-0.446C0.734,-0.47 0.756,-0.504 0.782,-0.549C0.752,-0.592 0.714,-0.632 0.668,-0.669L0.702,-0.713C0.718,-0.7 0.728,-0.692 0.73,-0.69C0.757,-0.739 0.779,-0.787 0.796,-0.836L0.86,-0.815C0.808,-0.724 0.778,-0.673 0.772,-0.664C0.771,-0.661 0.769,-0.658 0.767,-0.655C0.781,-0.642 0.796,-0.624 0.812,-0.604C0.833,-0.643 0.852,-0.681 0.868,-0.718L0.929,-0.696C0.868,-0.588 0.818,-0.506 0.777,-0.45L0.876,-0.458C0.866,-0.479 0.855,-0.499 0.843,-0.518L0.891,-0.535C0.93,-0.477 0.954,-0.426 0.963,-0.381ZM0.862,-0.166L0.862,-0.326L0.92,-0.326L0.92,-0.069L0.862,-0.069L0.862,-0.111L0.766,-0.111L0.766,0.076L0.704,0.076L0.704,-0.364L0.766,-0.364L0.766,-0.166L0.862,-0.166Z" style="fill:white;fill-rule:nonzero;"/>
                    </g>
                    <g transform="matrix(165.313,0,0,165.313,2088.66,744.801)">
                        <path d="M0.73,-0.254L0.271,-0.254L0.271,-0.031L0.73,-0.031L0.73,-0.254ZM0.198,0.077L0.198,-0.321L0.806,-0.321L0.806,0.077L0.73,0.077L0.73,0.036L0.271,0.036L0.271,0.077L0.198,0.077ZM0.25,-0.512L0.751,-0.512L0.751,-0.446L0.25,-0.446L0.25,-0.512ZM0.456,-0.834L0.531,-0.834C0.605,-0.732 0.701,-0.641 0.821,-0.561C0.872,-0.527 0.922,-0.499 0.97,-0.477C0.953,-0.46 0.937,-0.439 0.921,-0.413C0.804,-0.474 0.698,-0.551 0.601,-0.646C0.559,-0.686 0.525,-0.725 0.498,-0.762C0.439,-0.674 0.354,-0.59 0.241,-0.507C0.188,-0.468 0.136,-0.435 0.083,-0.407C0.072,-0.427 0.057,-0.447 0.037,-0.466C0.154,-0.525 0.26,-0.605 0.354,-0.705C0.397,-0.75 0.431,-0.793 0.456,-0.834Z" style="fill:white;fill-rule:nonzero;"/>
                    </g>
                    <g transform="matrix(165.313,0,0,165.313,2253.98,744.801)">
                        <path d="M0.617,-0.05L0.617,-0.763L0.91,-0.763L0.91,-0.249C0.91,-0.215 0.901,-0.194 0.882,-0.185C0.881,-0.184 0.88,-0.183 0.879,-0.183C0.86,-0.175 0.82,-0.171 0.759,-0.171C0.752,-0.199 0.745,-0.22 0.736,-0.235C0.753,-0.235 0.783,-0.234 0.826,-0.234C0.835,-0.236 0.84,-0.241 0.841,-0.25L0.841,-0.698L0.684,-0.698L0.684,-0.05L0.617,-0.05ZM0.365,-0.238L0.365,-0.756L0.399,-0.746C0.474,-0.78 0.528,-0.81 0.562,-0.836L0.617,-0.781C0.574,-0.755 0.512,-0.727 0.432,-0.696L0.432,-0.256C0.443,-0.259 0.461,-0.264 0.484,-0.271C0.526,-0.282 0.557,-0.291 0.578,-0.296L0.587,-0.234C0.552,-0.223 0.499,-0.208 0.429,-0.188C0.375,-0.172 0.337,-0.16 0.314,-0.153L0.296,-0.221C0.303,-0.222 0.314,-0.225 0.328,-0.229C0.344,-0.233 0.357,-0.236 0.365,-0.238ZM0.307,-0.705L0.255,-0.654C0.225,-0.691 0.176,-0.729 0.109,-0.769C0.104,-0.772 0.098,-0.776 0.093,-0.778L0.142,-0.824C0.215,-0.785 0.268,-0.747 0.303,-0.71C0.304,-0.708 0.305,-0.706 0.307,-0.705ZM0.278,-0.51L0.227,-0.457C0.191,-0.494 0.14,-0.531 0.071,-0.567C0.065,-0.571 0.059,-0.574 0.054,-0.576L0.103,-0.624C0.17,-0.593 0.225,-0.559 0.268,-0.52C0.272,-0.516 0.276,-0.512 0.278,-0.51ZM0.253,-0.375L0.253,-0.125C0.299,-0.055 0.383,-0.017 0.505,-0.012C0.657,-0.008 0.803,-0.01 0.943,-0.018C0.95,-0.018 0.956,-0.018 0.961,-0.019C0.949,0.002 0.94,0.027 0.936,0.055C0.782,0.06 0.639,0.061 0.506,0.058C0.382,0.052 0.289,0.016 0.229,-0.051C0.226,-0.054 0.223,-0.057 0.221,-0.061C0.186,-0.027 0.138,0.015 0.076,0.067L0.037,-0.006C0.083,-0.038 0.131,-0.076 0.181,-0.12L0.181,-0.306L0.05,-0.306L0.05,-0.375L0.253,-0.375Z" style="fill:white;fill-rule:nonzero;"/>
                    </g>
                    <g transform="matrix(165.313,0,0,165.313,2419.29,744.801)">
                        <path d="M0.503,-0.732L0.503,-0.67L0.065,-0.67L0.065,-0.732L0.249,-0.732L0.249,-0.833L0.321,-0.833L0.321,-0.732L0.503,-0.732ZM0.388,-0.51L0.328,-0.523C0.354,-0.581 0.37,-0.629 0.378,-0.668L0.446,-0.652C0.42,-0.583 0.401,-0.536 0.388,-0.51ZM0.226,-0.524L0.164,-0.507C0.16,-0.551 0.146,-0.599 0.125,-0.651L0.183,-0.666C0.205,-0.618 0.219,-0.571 0.226,-0.524ZM0.479,-0.123L0.435,-0.068C0.413,-0.093 0.375,-0.13 0.321,-0.18L0.321,0.074L0.249,0.074L0.249,-0.189C0.197,-0.107 0.141,-0.043 0.082,0.004C0.067,-0.017 0.05,-0.035 0.032,-0.05C0.091,-0.088 0.148,-0.146 0.201,-0.224C0.213,-0.241 0.224,-0.258 0.233,-0.275L0.054,-0.275L0.054,-0.338L0.249,-0.338L0.249,-0.443L0.051,-0.443L0.051,-0.506L0.515,-0.506L0.515,-0.443L0.321,-0.443L0.321,-0.338L0.507,-0.338L0.507,-0.275L0.321,-0.275L0.321,-0.251C0.374,-0.212 0.425,-0.171 0.474,-0.127C0.476,-0.126 0.477,-0.124 0.479,-0.123ZM0.956,-0.502L0.956,-0.432L0.844,-0.432L0.844,0.07L0.771,0.07L0.771,-0.432L0.622,-0.432L0.622,-0.407C0.622,-0.205 0.577,-0.051 0.488,0.054C0.48,0.063 0.471,0.073 0.463,0.081C0.454,0.065 0.438,0.05 0.417,0.034C0.414,0.032 0.412,0.031 0.41,0.029C0.495,-0.054 0.542,-0.177 0.549,-0.339C0.55,-0.36 0.551,-0.383 0.551,-0.408L0.551,-0.756L0.605,-0.739C0.731,-0.767 0.824,-0.796 0.883,-0.825L0.943,-0.77C0.875,-0.739 0.768,-0.709 0.622,-0.68L0.622,-0.502L0.956,-0.502Z" style="fill:white;fill-rule:nonzero;"/>
                    </g>
                    <g transform="matrix(165.313,0,0,165.313,2584.6,744.801)">
                        <path d="M0.16,-0.683L0.16,-0.575L0.087,-0.575L0.087,-0.751L0.462,-0.751L0.462,-0.836L0.536,-0.836L0.536,-0.751L0.917,-0.751L0.917,-0.588L0.842,-0.588L0.842,-0.683L0.16,-0.683ZM0.27,-0.631L0.338,-0.609C0.312,-0.554 0.285,-0.505 0.256,-0.462L0.256,0.076L0.185,0.076L0.185,-0.366C0.145,-0.319 0.107,-0.281 0.072,-0.251C0.057,-0.276 0.042,-0.298 0.025,-0.316C0.111,-0.383 0.182,-0.468 0.24,-0.573C0.251,-0.593 0.261,-0.612 0.27,-0.631ZM0.809,-0.216L0.809,-0.33L0.464,-0.33L0.464,-0.216L0.809,-0.216ZM0.464,-0.025L0.809,-0.025L0.809,-0.154L0.464,-0.154L0.464,-0.025ZM0.922,-0.5L0.668,-0.5C0.662,-0.481 0.651,-0.446 0.634,-0.395L0.881,-0.395L0.881,0.075L0.809,0.075L0.809,0.04L0.464,0.04L0.464,0.078L0.394,0.078L0.394,-0.395L0.561,-0.395C0.572,-0.434 0.581,-0.469 0.586,-0.5L0.346,-0.5L0.346,-0.567L0.922,-0.567L0.922,-0.5Z" style="fill:white;fill-rule:nonzero;"/>
                    </g>
                    <g transform="matrix(165.313,0,0,165.313,2749.92,744.801)">
                        <path d="M0.864,-0.791L0.927,-0.767C0.893,-0.726 0.86,-0.692 0.829,-0.663L0.782,-0.684C0.813,-0.717 0.841,-0.753 0.864,-0.791ZM0.533,-0.65L0.485,-0.68C0.522,-0.705 0.55,-0.742 0.569,-0.791L0.619,-0.772C0.597,-0.718 0.568,-0.677 0.533,-0.65ZM0.426,-0.789L0.487,-0.765C0.455,-0.724 0.426,-0.691 0.398,-0.666L0.354,-0.686C0.386,-0.725 0.41,-0.76 0.426,-0.789ZM0.152,-0.792L0.202,-0.774C0.181,-0.716 0.153,-0.674 0.118,-0.65L0.071,-0.679C0.109,-0.704 0.136,-0.742 0.152,-0.792ZM0.456,-0.576L0.411,-0.529C0.384,-0.551 0.338,-0.583 0.273,-0.623C0.238,-0.576 0.175,-0.54 0.085,-0.517C0.079,-0.534 0.068,-0.55 0.052,-0.566C0.05,-0.568 0.049,-0.57 0.048,-0.57C0.135,-0.59 0.193,-0.622 0.223,-0.666C0.246,-0.702 0.26,-0.759 0.265,-0.837L0.33,-0.837C0.326,-0.768 0.316,-0.714 0.302,-0.675C0.375,-0.631 0.427,-0.598 0.456,-0.576ZM0.78,-0.007L0.78,-0.098L0.238,-0.098L0.238,-0.007L0.78,-0.007ZM0.303,-0.343L0.303,-0.265L0.698,-0.265L0.698,-0.343L0.303,-0.343ZM0.771,-0.214L0.538,-0.214C0.535,-0.207 0.527,-0.187 0.513,-0.153L0.854,-0.153L0.854,0.075L0.78,0.075L0.78,0.049L0.238,0.049L0.238,0.076L0.168,0.076L0.168,-0.153L0.441,-0.153C0.446,-0.169 0.451,-0.189 0.458,-0.214L0.233,-0.214L0.233,-0.394L0.771,-0.394L0.771,-0.214ZM0.928,-0.561L0.89,-0.516L0.916,-0.516L0.916,-0.335L0.843,-0.335L0.843,-0.456L0.158,-0.456L0.158,-0.335L0.086,-0.335L0.086,-0.516L0.874,-0.516C0.832,-0.546 0.771,-0.583 0.693,-0.626C0.656,-0.579 0.595,-0.545 0.51,-0.522C0.502,-0.542 0.49,-0.561 0.473,-0.578C0.559,-0.598 0.616,-0.631 0.645,-0.677C0.666,-0.711 0.679,-0.765 0.684,-0.837L0.753,-0.837C0.749,-0.774 0.739,-0.721 0.723,-0.679C0.808,-0.636 0.876,-0.597 0.928,-0.561Z" style="fill:white;fill-rule:nonzero;"/>
                    </g>
                </g>
            </g>
        </g>
    </g>
</svg>
